<svg width="501" height="440" fill="none" xmlns="http://www.w3.org/2000/svg"><path d="M147.682 366.637c10.801 9.188 21.918 18.015 33.077 26.771 9.82 7.703 19.361 15.956 29.972 22.407 15.436 9.385 32.561 12.234 50.657 9.511 16.799-2.527 33.707-1.746 50.561-.079 17.881 1.771 35.57 4.526 52.794 9.904 18.25 5.7 36.662 4.605 55.255 1.48 11.021-1.853 22.251-3.11 33.411-3.301 11.164-.19 22.36 1.196 33.529 2.071 3.99.313 7.938 1.156 11.908 1.749 1.603.239 2.473-.279 2.028-2.058-.205-.823-.445-1.636-.672-2.451-4.148-14.83-5.191-29.885-3.812-45.222 1.003-11.154 2.078-22.353-.818-33.485-.783-3.014-.724-6.317-.637-9.477.319-11.781-1.058-23.22-5.813-34.151-1.08-2.483-1.255-5.344-2.028-7.978a844.719 844.719 0 0 0-5.188-16.925c-1.016-3.209-2.293-6.339-3.232-9.57-1.828-6.295-3.782-12.447-7.214-18.186-2.329-3.896-3.34-8.575-4.978-12.891-1.717-4.523-3.35-9.084-5.254-13.525-1.903-4.445-4.427-8.645-6.075-13.171-1.972-5.412-4.319-10.469-7.891-15.06-2.7-3.471-4.748-7.451-7.083-11.206-3.004-4.829-5.529-10.052-9.111-14.405-7.621-9.262-15.697-18.161-23.778-27.035-5.104-5.605-10.176-11.341-15.937-16.223-9.524-8.071-19.68-15.394-29.389-23.255-4.076-3.3-8.009-6.89-11.458-10.83-11.224-12.83-21.486-26.489-34.468-37.76-10.25-8.898-20.629-17.601-31.862-25.223-4.37-2.967-8.926-5.726-13.63-8.123-9.773-4.978-19.764-9.526-29.552-14.474C225.341 6.553 208.619 2.36 191.343.468c-9.932-1.087-19.989-.324-29.564 2.74-6.97 2.23-13.964 3.219-21.214 3.441-5.062.156-10.208.531-15.135 1.633-11.001 2.456-21.76 5.502-29 15.381-3.946 5.381-7.165 10.908-7.98 17.647-1.05 8.669.26 16.878 4.498 24.561 2.024 3.667 4.08 7.318 6.869 12.316-7.353-3.481-13.57-6.082-19.455-9.296-7.926-4.329-15.745-7.736-25.249-6.16-17.32 2.871-27.998 14.369-36.234 28.22-4.22 7.099-5.895 15.718-8.66 23.67-1.45 4.173-2.633 8.445-4.18 12.58C1.84 138.449.979 150.263.047 162.05c-.212 2.688.341 5.516.979 8.175 1.778 7.416 3.49 14.869 5.793 22.128 1.845 5.818 3.878 11.752 6.954 16.969 8.118 13.771 16.908 27.141 25.315 40.743 7.859 12.718 17.476 24.298 23.924 37.954 2.493 5.28 6.112 10.107 9.7 14.774 8.868 11.544 18.133 22.77 29.351 32.188 4.85 4.071 9.395 8.649 14.719 11.974 10.359 6.47 21.471 11.656 30.903 19.682h-.002Zm107.965 53.091c-.848.368-1.668.961-2.547 1.072-9.544 1.221-18.267-.983-26.84-5.388-11.89-6.109-21.152-15.384-30.997-24.008-.637-.558-1.23-1.188-1.932-1.653-9.323-6.139-16.233-14.652-23.094-23.247-6.727-8.429-14.711-15.65-22.338-23.24-9.239-9.192-17.538-19.336-26.157-29.144-4.032-4.588-8.004-9.247-11.757-14.062-10.433-13.385-18.988-27.889-25.266-43.683-1.012-2.549-1.996-5.2-2.389-7.891-3.231-22.202-8.752-44.12-9.459-66.626-.573-18.267 1.905-36.326 7.876-53.666 2.105-6.112 5.734-11.698 8.666-17.523 4.936-8.148 13.43-10.964 21.214-14.663.88-.417 2.604.42 3.686 1.085 1.386.85 2.906 1.836 2.019 4.049-2.429 6.055-4.193 12.454-7.246 18.168-7.18 13.434-11.943 27.422-12.261 42.759-.005.212 0 .427-.04.635-2.092 10.91-1.494 21.834-.892 32.865a280.406 280.406 0 0 0 11.505 65.583c7.18 23.863 19.987 45 36.462 63.872 9.583 10.977 19.668 21.427 30.076 31.61 10.546 10.322 20.71 21.039 31.093 31.528 8.541 8.627 17.983 16.011 29.189 20.962 6.554 2.896 13.046 5.939 19.536 8.978.727.341 1.265 1.082 1.89 1.638l.003-.01Zm40.293-.877c-1.257.138-2.529.166-3.797.156-5.707-.045-11.423-.307-17.123-.114-5.897.2-11.263-1.383-16.465-3.886-7.602-3.656-15.256-7.206-22.793-10.989-4.901-2.46-9.637-5.25-14.358-7.844-5.786-5.484-11.538-10.776-17.106-16.255-7.365-7.251-14.534-14.7-21.879-21.973-17.239-17.071-34.73-33.979-48.288-54.244-12.426-18.575-21.876-38.473-25.9-60.853-2.7-15.02-5.452-29.957-7.006-45.172-1.502-14.7-.225-29.179 1.437-43.642 1.233-10.721 4.954-20.868 9.929-30.547 2.881-5.605 5.055-11.569 7.637-17.333 1.124-2.51 2.127-2.707 3.841-.625a11.467 11.467 0 0 1 2.199 4.398c2.49 10.106 3.483 20.181 2.211 30.735-1.719 14.257-2.028 28.685-2.925 43.04-.067 1.055-.089 2.13.034 3.175 2.392 20.194 4.408 40.447 7.434 60.544 1.117 7.419 3.869 14.855 7.231 21.609 5.44 10.922 10.949 21.805 17.444 32.26 8.721 14.035 19.29 26.644 28.453 40.296 3.901 5.81 8.738 10.801 14.148 15.27 8.484 7.006 16.602 14.479 25.355 21.12 6.213 4.714 13.214 8.387 19.872 12.51 5.756 3.563 11.631 6.945 17.266 10.693 9.742 6.477 20.367 11.07 31.2 15.282.781.304 1.554.674 2.226 1.161.146.104-.128 1.216-.279 1.233l.002-.005Zm123.013 12.446c-6.703.907-13.4 2.038-20.142 2.451-13.42.825-26.481-1.267-39.355-5.208-8.454-2.586-17.108-4.612-25.774-6.401-16.357-3.374-32.45-7.646-47.619-14.677-9.165-4.249-18.106-9.086-26.777-14.279-11.248-6.737-22.128-14.092-34.784-22.22-8.593-7.592-18.596-16.374-28.517-25.253-1.552-1.388-2.802-3.147-4.052-4.837-6.517-8.802-13.311-17.424-19.415-26.508-13.188-19.628-26.504-39.363-32.732-62.513-3.004-11.169-4.044-22.884-5.672-34.397-.857-6.07-.509-12.342-1.68-18.333-2.354-12.039-1.408-24.045-.603-36.064.749-11.174 1.984-22.316 2.797-33.488.227-3.132-.309-6.317-.445-9.479-.024-.556.208-1.124.319-1.685.566.274 1.267.418 1.673.843 3.76 3.95 7.72 7.745 11.139 11.977 5.865 7.263 7.72 15.867 7.187 25.035-1.053 18.126 1.778 35.869 5.207 53.55 2.784 14.354 6.26 28.547 11.154 42.332 2.678 7.545 5.529 15.068 8.919 22.314 8.619 18.424 19.892 35.266 32.847 50.849 9.144 11.001 19.362 21.111 29.154 31.568 1.147 1.223 2.624 2.137 3.956 3.185 7.322 5.761 14.484 11.739 22.019 17.206 6.497 4.717 13.358 8.939 20.164 13.215 7.16 4.499 14.732 8.395 21.604 13.284 11.555 8.219 24.088 13.807 37.974 16.562 10.759 2.134 21.395 5.012 32.225 6.611 8.308 1.225 16.836.958 25.266 1.386 4.637.235 9.271.509 13.901.83.549.037 1.07.489 1.603.746-.511.482-.975 1.317-1.544 1.393l.003.005Zm56.505-8.777c.373.321.511.916.758 1.386-.393.086-.786.237-1.181.249-4.022.109-8.103.68-12.056.195-11.858-1.452-23.689-.049-35.525-.207-13.939-.188-27.907-.41-41.788-1.534-8.363-.677-16.604-3.002-24.861-4.771-7.636-1.635-15.29-3.268-22.807-5.361-8.397-2.337-15.94-6.601-23.257-11.307-8.538-5.492-17.301-10.631-25.837-16.125-6.218-4.002-12.246-8.301-18.318-12.528-3.128-2.179-6.164-4.489-9.242-6.742-8.763-6.685-17.506-13.321-24.826-21.683-6.93-7.92-14.388-15.394-21.061-23.519-5.465-6.656-10.282-13.869-15.095-21.031-10.279-15.297-19.059-31.304-24.689-49.037-4.949-15.584-9.327-31.335-12.022-47.379-2.549-15.178-5.264-30.505-3.95-46.101.521-6.179-.173-12.271-2.246-18.168-.227-.647-.148-1.401-.212-2.107.479.36 1.062.639 1.425 1.094 12.197 15.31 19.885 32.702 24.497 51.67 1.992 8.192 4.956 16.167 7.782 24.134 2.824 7.96 5.826 15.868 9.107 23.648 5.173 12.261 9.375 24.88 15.418 36.842 5.642 11.171 12.09 21.733 18.956 32.123 4.18 6.325 7.55 13.222 13.336 18.371 3.317 2.952 6.798 5.731 10 8.802 5.168 4.958 10.294 9.974 15.211 15.184 7.886 8.355 16.755 15.504 26.048 22.195 7.543 5.43 14.344 11.848 22.544 16.416a2050.59 2050.59 0 0 1 36.301 20.707c7.952 4.647 16.488 7.681 25.495 9.042 10.633 1.609 21.283 3.303 32.171 2.068 6.717-.761 13.533-.645 20.295-1.045 6.759-.4 13.535-.731 20.255-1.504 7.441-.855 13.785 1.232 19.366 6.028l.008-.005Zm-123.66-38.93c8.061 4.62 16.347 8.861 24.304 13.647 12.333 7.416 25.837 9.884 39.928 10.556 12.219.583 24.421 1.492 36.628 2.32.664.044 1.287.689 1.929 1.052-.595.183-1.181.485-1.789.534-4.639.375-9.279.768-13.926 1.028-8.451.474-16.903 1.111-25.362 1.23-18.291.257-36.074-1.544-52.809-10.317-14.064-7.372-27.881-15.134-40.945-24.06-15.717-10.739-31.509-21.646-44.338-35.869-7.967-8.834-17.286-16.112-25.515-24.583-1.752-1.801-3.488-3.684-4.862-5.771-5.336-8.106-10.779-16.157-15.702-24.512-6.648-11.281-12.595-22.929-17.227-35.237-4.168-11.075-9.091-21.871-13.106-32.998-4.084-11.32-7.424-22.909-11.169-34.352-2.431-7.429-4.975-14.82-7.542-22.202-.675-1.942-1.628-3.785-2.453-5.675.274-.205.551-.41.825-.613 3.814 4.141 7.503 8.407 11.48 12.387 4.556 4.561 7.323 10.265 10.727 15.577 1.566 2.441 3.461 4.797 5.637 6.695 4.865 4.239 8.642 9.207 11.333 15.028 6.914 14.956 13.271 30.199 20.836 44.817 9.014 17.421 19.615 33.966 31.599 49.54 2.807 3.647 6.747 6.411 9.628 10.013 7.364 9.21 14.099 18.934 21.683 27.948 10.455 12.429 21.321 24.574 34.518 34.239 4.928 3.609 10.376 6.529 15.695 9.575l-.005.003Zm34.102-24.117c1.784 1.127 3.753 1.979 5.453 3.214 13.513 9.818 26.982 19.7 40.113 30.32-2.859-.98-5.806-1.764-8.563-2.977-15.465-6.808-30.523-14.212-43.7-25.156-12.192-10.124-25.271-19.186-37.455-29.318-7.589-6.309-14.314-13.674-21.303-20.69-5.114-5.134-10.028-10.47-15.03-15.715l.261-.229c6.962 5.091 13.951 10.146 20.871 15.297 2.369 1.764 4.541 3.792 6.828 5.665 11.271 9.234 22.378 18.681 33.898 27.592 5.82 4.504 12.382 8.052 18.632 11.997h-.005Zm-93.468-70.3c5.954 9.358 12.805 17.733 20.569 25.493a4031.214 4031.214 0 0 0 20.659 20.488c1.65 1.628 3.32 3.258 5.143 4.684 14.682 11.485 29.419 22.899 44.103 34.379 6.532 5.106 13.684 9.091 21.105 12.772 12.308 6.102 24.945 11.241 38.172 14.944.724.203 1.307.902 1.954 1.369-.741.096-1.49.311-2.226.269-12.419-.694-24.855-1.183-37.247-2.213-10.023-.833-19.152-4.479-27.811-9.705-10.479-6.324-21.32-12.055-31.98-18.081-2.391-1.354-4.691-2.871-7.033-4.313l-.351.308c-7.449-7.451-14.744-15.065-22.385-22.313-10.342-9.813-17.219-22.316-26.308-33.082-3.528-4.18-7.251-8.2-10.987-12.197-8.241-8.822-14.864-18.835-21.147-29.055-7.624-12.402-14.862-25.038-21.046-38.233-3.851-8.224-7.433-16.577-11.087-24.893-.272-.617-.151-1.406-.21-2.112.719.417 1.578.697 2.129 1.272 3.496 3.657 7.004 7.303 10.356 11.088 11.866 13.4 23.49 27.022 35.565 40.227 8.017 8.765 13.788 19.044 20.063 28.907v-.003Zm131.398 89.822-.801.63c-2.547-1.863-5.074-3.75-7.641-5.584-10.319-7.366-20.273-15.181-31.187-21.787-10.095-6.109-19.408-13.58-28.744-20.863-14.337-11.179-28.584-22.489-42.49-34.191-6.512-5.48-12.138-12.012-17.859-18.445 11.823 7.572 24.831 12.617 37.124 19.033 7.236 3.775 13.671 9.222 20.085 14.393 6.225 5.02 11.981 10.625 17.908 16.013 11.703 10.641 23.489 21.195 35.024 32.013 6.421 6.02 12.404 12.508 18.583 18.783l-.002.005Zm33.944 23.4-.44.482c-5.588-4.78-11.47-9.262-16.708-14.401-12.332-12.097-24.181-24.692-36.578-36.723-7.564-7.342-15.813-13.978-23.699-20.997-6.934-6.171-13.914-12.305-20.656-18.684-10.85-10.265-22.77-18.914-36.654-24.557-14.062-5.716-26.068-14.659-38.322-23.336-10.542-7.463-17.227-18.37-25.92-27.466-5.645-5.907-10.905-12.187-16.78-18.798 1.129.41 1.72.474 2.103.788 11.043 9.042 23.514 15.63 36.503 21.342a35.862 35.862 0 0 1 5.539 3.059c10.359 6.974 20.357 14.546 31.086 20.885 11.362 6.712 21.548 14.946 32.287 22.464 7.686 5.378 14.366 11.727 20.806 18.445 8.595 8.963 17.491 17.641 25.896 26.775 6.976 7.584 13.355 15.714 20.132 23.487 9.402 10.786 18.943 21.448 28.393 32.192 4.378 4.978 8.679 10.026 13.014 15.043h-.002Zm14.04 7.34c-.699-.388-1.586-.618-2.068-1.188-5.986-7.066-11.809-14.275-17.899-21.249-3.594-4.116-7.792-7.708-11.361-11.843-12.793-14.823-25.229-29.957-38.204-44.617-7.94-8.971-16.629-17.279-24.952-25.911-3.073-3.187-5.805-6.751-9.143-9.625-6.564-5.65-13.41-10.973-20.196-16.362-13.953-11.082-29.223-20.225-44.187-29.813-1.784-1.142-3.555-2.315-5.23-3.607-8.084-6.236-16.98-11.011-26.185-15.376-6.07-2.879-11.875-6.384-17.557-9.994-8.029-5.101-15.97-10.366-23.68-15.932-4.593-3.313-8.891-7.11-12.94-11.08-9.015-8.839-17.612-18.089-25.602-27.882-.662-.812-1.455-1.534-2.013-2.408-.304-.477-.247-1.184-.354-1.786.541.197 1.164.286 1.614.61 4.98 3.602 9.933 7.238 14.892 10.867 13.039 11.715 29.351 17.353 45.004 24.196 8.338 3.647 16.394 7.738 23.702 13.247 7.108 5.356 14.23 10.717 21.602 15.695 7.881 5.321 16.145 10.075 24.085 15.314 5.296 3.494 10.383 7.318 15.443 11.155 3.708 2.809 7.27 5.818 10.813 8.839 6.589 5.62 13.118 11.315 19.665 16.985.8.691 1.502 1.514 2.364 2.114 8.207 5.724 14.919 13.007 21.649 20.325 8.555 9.304 17.718 18.064 26.004 27.593 5.786 6.653 10.641 14.128 15.727 21.367 7.142 10.158 14.267 20.337 21.108 30.698 5.919 8.963 11.446 18.185 17.106 27.319.425.684.533 1.566.79 2.356l.003-.007Zm9.563-87.24c1.134 3.627 2.075 7.421 3.881 10.712 3.503 6.389 4.252 13.207 4.331 20.241.005.449-.363.901-.556 1.351-.272-.284-.571-.551-.808-.862-.121-.158-.146-.396-.19-.601-3.283-15.035-12.619-27.088-19.93-40.11-13.029-23.205-28.393-44.812-45.79-64.959-5.504-6.376-10.855-12.913-16.723-18.944-4.992-5.133-10.329-10.032-16.038-14.343-9.151-6.913-17.105-15.048-25.32-22.951-4.716-4.536-9.511-9.104-14.818-12.891-14.998-10.702-30.112-21.258-45.496-31.395-13.948-9.19-28.112-18.091-42.544-26.491-14.633-8.518-30.377-14.615-46.937-18.301-11.122-2.475-22.291-4.854-33.546-6.57-6.404-.975-13.027-.74-19.544-.666-9.062.104-18.153 1.245-27.074-1.351-5.299-1.542-6.587-5.76-2.626-9.746 2.033-2.046 4.632-3.701 7.25-4.954 3.998-1.91 8.222-3.36 12.378-4.93 5.22-1.972 10.546-2.523 16.184-2.145 14.867.993 29.213 4.51 43.408 8.607 10.097 2.913 20.256 5.998 29.824 10.27 13.83 6.173 27.294 13.219 40.632 20.416 9.289 5.012 18.104 10.904 27.131 16.404l-.438.62c11.123 8.436 22.089 17.091 33.411 25.251 12.706 9.155 26.004 17.5 38.547 26.866 11.999 8.96 23.198 18.847 33.621 29.784 9.427 9.894 17.313 20.596 24.124 32.287 1.05 1.803 2.525 3.372 3.874 4.99 4.607 5.529 8.565 11.443 11.599 18.01 1.583 3.429 3.572 6.712 5.692 9.85 9.756 14.44 17.3 29.922 22.496 46.561l-.005-.01Zm-93.224-155.993c4.751 3.814 8.845 8.444 13.242 12.7 6.063 5.868 12.357 11.518 18.141 17.647 7.653 8.113 14.919 16.594 22.333 24.932 2.236 2.515 4.37 5.121 6.621 7.624 5.262 5.85 9.566 12.204 12.407 19.67 2.159 5.677 5.741 10.811 7.972 16.468 4.405 11.179 8.387 22.531 12.347 33.88.601 1.722.146 3.815.178 5.734-.988-1.549-2.107-3.029-2.937-4.657-1.92-3.762-3.563-7.666-5.569-11.379-2.394-4.437-5.047-8.733-7.591-13.088-2.975-5.092-5.967-10.171-8.921-15.275-1.48-2.557-2.523-5.472-4.403-7.679-7.008-8.224-12.574-17.414-18.289-26.503-5.104-8.12-12.132-14.529-18.489-21.56-13.306-14.724-29.238-26.251-45.2-37.724-13.402-9.635-27.224-18.684-40.664-28.27-5.316-3.792-9.862-8.664-15.176-12.463-16.522-11.809-33.897-22.158-52.255-30.98-13.514-6.495-26.909-13.096-41.418-17.098-15.663-4.321-31.298-8.548-47.483-10.833-14.553-2.056-27.135 2.809-39.505 8.928-3.214 1.589-5.541 5.057-8.118 7.812-1.376 1.47-2.184 1.467-3.397-.16-4.689-6.286-4.499-12.23.754-19.844 2.747-3.982 6.574-6.947 11.03-9.242 10.408-5.356 21.387-7.547 33.028-7.898 14.423-.437 28.757-.677 42.799 3.348 10.776 3.09 21.006 7.55 30.977 12.597 11.853 6 23.815 11.83 35.345 18.412 10.453 5.966 20.389 12.84 31.973 20.218 6.023 5.109 13.222 11.318 20.535 17.388 7.972 6.618 15.959 13.224 24.102 19.628 11.818 9.294 23.904 18.252 35.626 27.662l.005.005ZM99.083 66.242c-1.922-4.891-4.403-9.709-5.376-14.803-2.905-15.203 8.644-31.294 21.96-35.093 8.825-2.518 17.615-4.323 26.82-4.64 5.867-.202 11.88-.966 17.498-2.609 9.496-2.774 19.126-4.377 28.853-3.419 12.35 1.218 24.502 3.385 36.338 7.869 15.265 5.783 29.668 13.259 44.056 20.717 9.338 4.842 18.44 10.475 23.294 15.216 10.796 9.037 18.682 15.45 26.328 22.138 2.503 2.189 4.355 5.114 6.559 7.653 6.908 7.953 13.704 16.007 20.816 23.771a115.886 115.886 0 0 0 12.397 11.678c10.035 8.141 20.523 15.735 30.395 24.063 5.286 4.461 9.758 9.911 14.457 15.045 7.115 7.767 14.388 15.418 21.048 23.566 4.101 5.017 7.216 10.845 10.697 16.359.351.554.171 1.441.238 2.174-.556-.281-1.226-.447-1.648-.864-4.361-4.289-8.879-8.439-12.97-12.973-9.331-10.344-18.946-20.339-29.552-29.443-8.476-7.275-16.093-15.544-24.275-23.173-7.414-6.91-14.941-13.714-22.674-20.265-7.565-6.409-15.722-12.14-23.092-18.756-4.017-3.607-7.157-8.281-10.314-12.74-6.033-8.521-13.358-15.772-21.281-22.46-7.211-6.084-15.808-9.909-24.45-13.13-10.428-3.889-21.043-7.412-32.138-9.353-9.62-1.685-19.226-2.814-28.982-3.054-3.987-.099-7.977-.81-11.932-1.445-7.72-1.243-15.421-2.607-23.121-3.958-10.388-1.823-20.646-.929-30.911 1.149-8.276 1.675-14.936 5.643-19.86 12.528-4.543 6.351-10.008 12.11-12.753 19.618-1.015 2.772-1.763 5.64-2.729 8.432-.383 1.101-1.031 2.11-1.557 3.162-.729-.979-1.714-1.856-2.144-2.95l.005-.01Zm8.79 14.153c-1.203-1.583-1.315-4.441-1.048-6.613 1.231-10.03 4.333-19.366 10.791-26.273 2.043-2.792 3.484-4.895 5.057-6.888 3.919-4.968 8.879-8.12 15.132-9.704 13.484-3.415 26.918-2.678 40.289.061 12.876 2.639 25.826 3.926 38.934 4.749 10.912.684 21.694 3.103 32.196 6.534 9.827 3.212 19.563 6.488 28.64 11.606 8.787 4.956 16.139 11.513 22.6 19.097 4.093 4.805 7.446 10.253 11.655 14.942 4.635 5.16 9.373 10.47 14.944 14.501 12.037 8.711 23.285 18.284 34.031 28.483 7.807 7.409 15.359 15.082 23.159 22.496 4.439 4.219 9.291 8.004 13.693 12.258 5.762 5.564 11.266 11.394 16.864 17.123.274.282.398.707.593 1.065-.482-.045-1.127.096-1.423-.161-3.661-3.187-7.528-6.191-10.853-9.704-12.879-13.6-27.652-24.919-42.811-35.748-10.873-7.764-20.861-16.512-30.807-25.401-7.384-6.599-14.692-13.442-23.623-18.17-3.718-1.972-6.895-4.934-10.504-7.145-8.464-5.183-16.881-10.475-25.609-15.181-10.761-5.8-21.819-11.05-32.749-16.535-19.388-9.734-39.725-15.359-61.618-14.01-8.654.534-17.432.573-25.908 2.152-10.006 1.862-19.589 5.647-27.057 13.007-6.589 6.492-11.102 14.054-8.098 23.845.783 2.554 2.554 4.797 3.802 7.219.262.506.217 1.17.314 1.763-.566-.143-1.3-.108-1.67-.459-3.061-2.89-6.401-5.59-8.919-8.906l.003-.002Zm29.66 24.752c-1.504-1.324-2.675-3.031-3.992-4.568 2.028.126 4.059.354 6.087.359 7.609.017 15.221-.033 22.83-.075 4.434-.024 8.97-.711 13.284-.012 21.241 3.441 42.499 6.932 62.589 15.171 8.99 3.686 17.736 7.812 25.921 13.126 18.634 12.1 37.358 24.062 56.047 36.076 6.055 3.891 12.12 7.767 18.18 11.649 10.754 7.653 20.021 16.915 29.355 26.127 4.202 4.148 8.639 8.111 13.286 11.75 13.185 10.322 25.446 21.486 35.558 34.977 6.816 9.094 14.874 17.283 21.379 26.577 11.233 16.054 21.97 32.448 31.516 49.632 5.561 10.008 11.369 19.769 14.111 30.995a702.458 702.458 0 0 1 3.852 16.678c.128.586-.383 1.312-.596 1.972-.387-.435-.933-.808-1.136-1.317-1.169-2.95-2.209-5.952-3.382-8.896-1.253-3.143-2.228-6.478-3.978-9.326-11.477-18.68-21.248-38.367-33.625-56.527-4.909-7.202-10.485-13.726-16.503-19.94-7.629-7.873-15.403-15.606-22.943-23.561-7.451-7.863-15.861-14.548-24.414-21.142-11.228-8.659-22.019-17.881-33.208-26.595-11.184-8.711-22.167-17.698-34.675-24.603-8.879-4.902-17.365-10.512-26.163-15.564-7.866-4.519-15.892-8.76-23.897-13.034-10.608-5.665-21.112-11.547-31.928-16.785-17.684-8.565-36-15.44-55.356-19.356-11.157-2.256-22.257-4.862-32.588-9.862-2.033-.983-3.906-2.419-5.613-3.918l.002-.008Zm12.884 13.437c.491-.151 1.062-.548 1.46-.417 17.842 5.8 36.701 7.898 54.195 14.978 15.445 6.253 30.648 12.995 45.202 21.162 10.675 5.991 21.691 11.404 32.148 17.746 16.805 10.193 34.486 19.025 49.892 31.434 11.376 9.163 22.686 18.41 34.063 27.573 3.463 2.789 6.949 5.573 10.608 8.096 11.737 8.091 21.644 18.187 31.479 28.376 7.021 7.275 14.356 14.287 20.935 21.945 5.19 6.04 9.763 12.683 14.034 19.423 7.105 11.208 14.925 22.029 20.011 34.428.633 1.542 1.646 2.963 2.658 4.307 7.501 9.97 11.417 21.601 15.322 33.215.796 2.364.912 4.958 1.3 7.454.062.395-.101.827-.158 1.232-.153.104-.383.312-.425.279-.442-.353-1.033-.659-1.253-1.133-3.179-6.901-6.25-13.852-9.481-20.728-1.253-2.663-2.797-5.195-4.297-7.735-3.211-5.44-6.294-10.971-9.783-16.231-3.372-5.079-7.08-9.949-10.835-14.759-5.959-7.636-11.787-15.403-18.213-22.634-5.447-6.127-11.581-11.661-17.56-17.296-7.678-7.238-15.327-14.521-23.324-21.397-6.233-5.361-12.703-10.544-19.551-15.075-18.385-12.164-36.259-24.964-52.903-39.456-9.62-8.377-20.356-15.121-31.661-21.016-6.735-3.51-13.361-7.233-19.967-10.986a2337.986 2337.986 0 0 1-27.98-16.16c-5.29-3.102-10.347-6.62-15.732-9.536-8.706-4.713-17.61-9.064-26.41-13.605-13.854-7.147-27.696-14.323-41.541-21.49-.561-.292-1.161-.541-1.648-.932-.291-.232-.395-.699-.583-1.059l-.002-.003Zm27.916 21.758c11.619 5.511 23.267 10.966 34.794 16.668 4.539 2.246 8.825 5.02 13.153 7.668 9.566 5.853 18.949 12.022 28.668 17.602 9.686 5.564 19.892 10.238 29.51 15.915 9.817 5.796 20.065 11.085 28.111 19.482.146.154.292.314.46.438 14.353 10.482 27.232 22.852 42.603 32.089 11.216 6.739 21.846 14.455 31.35 23.702 9.68 9.419 20.172 17.999 30.078 27.195 4.156 3.856 7.896 8.199 11.515 12.579 6.041 7.31 11.972 14.722 17.679 22.294 3.412 4.526 6.334 9.427 9.432 14.188 1.036 1.591 1.762 3.402 2.913 4.891 7.456 9.64 11.49 21.103 16.891 31.823 1.781 3.535 2.455 7.641 3.515 11.517 1.342 4.899 2.567 9.83 3.81 14.756.096.381-.072.828-.119 1.243-.531-.203-1.26-.255-1.561-.638-.907-1.156-1.68-2.421-2.448-3.678-5.384-8.822-10.527-17.802-16.185-26.444-5.995-9.156-12.515-17.968-18.728-26.983-4.786-6.939-9.521-13.916-14.156-20.957-6.305-9.578-14.682-17.372-22.237-25.858-7.846-8.81-16.095-17.274-24.453-25.604-4.182-4.17-8.965-7.748-13.535-11.523-12.074-9.973-23.897-20.277-36.366-29.729-8.397-6.367-17.819-11.372-26.607-17.247-7.747-5.18-15.487-10.423-22.815-16.169-12.624-9.899-26.745-16.844-41.573-22.639-12.288-4.803-23.694-11.199-36.15-22.077-6.841-4.138-16.444-9.891-25.97-15.766a20.352 20.352 0 0 1-4.741-4.042c-2.559-3.002-4.857-6.228-7.263-9.363 3.476 1.551 6.984 3.034 10.42 4.664l.005.003Zm-70.492-49.286c-.569.472-1.063 1.168-1.712 1.378-13.089 4.21-20.33 14.22-26.593 25.671-4.563 8.343-6.798 17.276-8.547 26.348-3.59 18.597-4.79 37.356-1.723 56.183 1.7 10.44 3.602 20.848 5.379 31.279.427 2.505.864 5.022 1.037 7.552.712 10.314 3.886 19.897 8.472 29.068a215.413 215.413 0 0 0 31.829 47.006c9.378 10.546 18.19 21.688 28.349 31.422 10.529 10.087 20.335 20.67 29.974 33.01-5.798-4.239-10.756-7.75-15.586-11.426-8.073-6.149-15.893-12.646-24.129-18.563-13.437-9.652-24.003-21.861-32.675-35.765-12.38-19.85-24.655-39.77-36.726-59.808-6.994-11.611-13.073-23.889-16.633-36.884-2.7-9.862-3.24-20.476-3.578-30.792-.462-14.035 2.229-27.694 7.572-40.793 2.94-7.209 4.924-14.852 8.32-21.822 4.514-9.256 8.92-18.723 16.538-26.078 8.056-7.777 17.602-10.514 28.547-8.449.696.131 1.264.956 1.892 1.46l-.007.003Zm-98.92 88.453c-2.701-8.966-4.425-17.852-2.84-27.46 1.621-9.817 3.375-19.437 7.039-28.759 2.92-7.428 5.136-15.154 7.33-22.844 2.799-9.823 9.321-16.792 16.695-23.31 4.511-3.986 9.25-7.129 15.273-8.46 7.775-1.72 15.11-1.703 21.345 2.89 1.648.8 2.809 1.312 3.893 1.952.158.094.092.926-.133 1.203-.218.264-.776.247-1.186.358-3.266.884-6.522 1.818-9.803 2.643-12.135 3.054-21.631 9.843-29.658 19.423-10.756 12.834-18.405 27.265-23.68 42.984-4.241 12.642-4.864 25.686-2.803 38.861.096.617-.341 1.317-.53 1.979-.32-.485-.782-.924-.943-1.458v-.002Zm75.776 129.942c-9.284-10.759-16.98-22.464-23.21-35.266-5.443-11.182-12.315-21.565-20.033-31.348-10.107-12.817-16.76-27.277-20.614-43.08-1.055-4.321-1.993-8.674-3.204-12.951-5.551-19.588-3.592-38.544 5.077-56.781 3.792-7.977 8.33-15.601 12.528-23.386.16.067.32.134.484.2 3.152-3.7 6.23-7.465 9.47-11.087 8.853-9.91 20.964-13.286 33.282-15.448 4.725-.83 9.933 1.038 14.909 1.757.531.076.983.681 1.472 1.04-.622.33-1.21.82-1.875.966-10.865 2.374-19.586 8.241-25.453 17.483-6.88 10.838-13.593 21.881-16.802 34.57-.464 1.833-1.124 3.636-1.897 5.363-8.896 19.873-10.206 40.669-8.427 62.073 1.193 14.351 6.816 27.062 13.046 39.511 5.846 11.678 13.02 22.684 19.337 34.134 9.588 17.382 21.05 33.567 31.714 50.26.432.679.795 1.403 1.19 2.104-.85-.35-1.808-.55-2.532-1.079-7.246-5.282-12.671-12.32-18.464-19.035h.002Z" fill="url(#leaf-3__a)"/><defs><linearGradient id="leaf-3__a" x1="250.495" y1="439.202" x2="250.495" y2="0" gradientUnits="userSpaceOnUse"><stop stop-color="#99866C"/><stop offset=".204" stop-color="#786141"/><stop offset=".724" stop-color="#B6A791"/><stop offset="1" stop-color="#CCC1B3"/></linearGradient></defs></svg>