<svg width="517" height="396" fill="none" xmlns="http://www.w3.org/2000/svg"><path d="M81.663 40.069c-1.708 1.95-3.422 3.894-5.138 5.84-6.059 6.86-12.387 13.505-18.116 20.633-6.8 8.461-13.288 17.196-19.537 26.076-7.538 10.712-14.937 21.505-20.372 33.554-7.443 16.499-12.93 33.598-16.844 51.225-.63 2.839-.872 5.824-.845 8.737.048 5.025.486 10.048.697 15.073.8 18.846 7.551 35.444 19.506 49.833 9.572 11.522 22.099 18.654 36.47 22.62 2.675.737 5.383 1.357 8.055 2.092.798.221 1.537.652 2.303.988-.461.653-.82 1.417-1.403 1.937-2.72 2.432-5.49 4.81-8.261 7.188-9.948 8.541-14.562 19.94-17.274 32.339-.257 1.172-.253 2.428-.19 3.635.789 15.132 3.048 29.968 8.727 44.143 4.407 11.001 11.833 18.782 22.975 23.235 19.214 7.681 38.797 8.286 58.816 4.121 5.232-1.09 10.604-2.282 15.89-2.198 12.497.2 25.001.912 37.464 1.864 9.086.693 18.043.48 26.92-1.52 15.602-3.518 30.199-9.388 44.204-17.272 15.651-8.808 30.057-19.126 43.36-31.101 2.841-2.557 5.679-5.136 8.666-7.514 5.568-4.428 11.174-8.814 16.892-13.042 7.52-5.562 15.437-10.618 22.692-16.499 9.576-7.76 18.675-16.111 27.98-24.206l.081.094c4.328-3.764 8.798-7.373 12.946-11.326 7.282-6.939 14.418-14.033 21.51-21.167 4.879-4.908 9.629-9.946 14.343-15.015 4.238-4.556 8.443-9.149 12.499-13.865 5.854-6.806 11.948-13.455 17.207-20.702 4.639-6.393 8.46-13.416 12.312-20.341 7.025-12.629 15.679-24.418 19.197-38.851 3.071-12.603 6.935-25.015 10.075-37.604 2.094-8.39 3.839-16.971 7.794-24.617 4.234-8.184 7.296-16.796 10.908-25.2.814-1.897 1.188-3.995 1.635-6.028.703-3.18.66-3.211-2.353-3.539-7.595-.827-15.199-1.603-22.792-2.453-19.213-2.152-38.525-1.664-57.795-2.035-15.927-.307-31.366-2.247-46.258-8.483-10.203-4.274-20.896-7.393-31.404-10.923-12.355-4.15-24.877-7.545-37.953-8.62-3.084-.253-6.092-1.353-9.155-1.952-5.28-1.034-10.547-2.205-15.871-2.923-12.906-1.741-25.844-3.247-38.767-4.858-10.374-1.293-20.746-1.71-31.16-.286-5.826.795-11.697 1.271-17.551 1.885-9.297.975-18.6 1.893-27.888 2.931-5.499.614-10.994 1.299-16.462 2.144-4.952.768-9.932 1.526-14.781 2.76-16.089 4.096-31.454 10.113-46.035 18.08-6.176 3.374-13.086 5.578-17.928 11.113h.009Zm-7.266 228.879c-.695.32-1.668.244-2.47.086-13.16-2.627-25.965-6.22-36.633-14.896-2.937-2.391-5.464-5.284-8.178-7.948-10.56-12.038-16.092-26.059-17.31-41.933-.45-5.862-1.475-11.685-1.811-17.549-.38-6.614.188-13.19 2.714-19.441.117-.288.417-.501.635-.748.258.314.718.606.747.94.4 4.489.73 8.986 1.1 13.476.896 10.905 2.823 21.617 5.835 32.145 1.971 6.886 5.195 13.153 9.034 19.109 3.092 4.796 6.547 9.353 9.756 14.074 2.881 4.238 6.752 7.244 10.921 10.182 7.746 5.461 16.606 7.486 25.525 9.591.685.163 1.275.72 1.91 1.092-.582.628-1.056 1.486-1.777 1.818l.002.002Zm166.577-139.657c15.784-14.097 33.308-25.216 52.497-33.845 13.516-6.08 26.858-12.616 41.124-16.864 3.472-1.034 7.038-1.765 10.579-2.541 3.382-.743 6.908-1.013 10.165-2.11 7.131-2.406 14.459-3.266 21.896-3.934 9.14-.823 18.216-2.512 27.366-3.04 11.752-.678 23.552-.516 35.329-.852 3.276-.094 6.537-.678 9.806-1.008 3.272-.332 6.543-.697 9.823-.9.979-.06 1.987.384 2.981.597-.764.601-1.449 1.378-2.311 1.777-4.38 2.025-8.764 4.054-13.222 5.898-15.933 6.593-31.907 13.096-47.849 19.668-21.981 9.063-44.172 17.667-65.87 27.36-27.199 12.151-54.329 24.533-80.501 38.826-10.886 5.946-21.231 12.9-32.214 18.639-13.89 7.259-28.185 13.742-42.3 20.575-5.731 2.775-11.445 5.587-17.169 8.376-.303.148-.633.236-.95.353.144-.391.19-.862.442-1.161 7.389-8.67 14.084-17.946 22.742-25.514 3.111-2.718 5.718-6.011 7.196-7.593 18.863-13.89 34.515-28.486 50.44-42.707ZM106.259 387.922c-14.469-.129-28.17-3.146-40.448-11.136-4.23-2.751-6.262-7.238-8.23-11.683-5.982-13.493-8.067-27.829-8.936-42.381-.486-8.14 3.313-15.188 7.084-21.961 2.392-4.296 6.054-7.883 9.148-11.791.128.089.257.177.385.267l4.169-3.088c-.687 1.639-1.144 3.432-2.103 4.896-3.843 5.869-5.816 12.51-8.065 19.03-2.972 8.618-2.386 17.021 1.819 25.142 3.165 6.113 5.917 12.481 9.556 18.295 8.808 14.07 18.967 26.88 35.216 33.124.542.209.945.783 1.415 1.186-.336.036-.67.103-1.006.1h-.004Zm123.289-9.72c-15.533 5.378-31.27 9.115-47.924 6.654-4.276-.631-8.658-.545-12.99-.785-4.683-.257-9.391-.276-14.038-.819-6.434-.751-12.844-.948-19.184.336-4.497.911-8.541-.607-12.731-1.536-2.192-.489-4.364-1.316-6.573-1.445-8.181-.474-14.785-4.338-21.027-9.194-4.988-3.882-8.577-8.865-12.393-13.842-6.397-8.347-10.374-17.865-15.09-27.053-2.869-5.591-2.919-11.282-1.12-17.141 2.6-8.457 6.137-16.42 10.811-24.013 3.87-6.284 6.704-13.213 9.867-19.921 2.549-5.405 2.463-5.445 6.962-9.505 1.38-1.042 2.758-2.086 4.136-3.126-.553 1.685-1.025 3.401-1.672 5.05-3.785 9.648-8.42 19.034-9.942 29.413-2.309 15.77.399 30.479 8.858 44.274 6.978 11.379 16.41 20.214 27.391 27.158 8.554 5.409 17.892 9.762 28.166 11.463 5.986.992 11.869 2.646 17.871 3.47 5.813.802 11.731 1.422 17.579 1.245 14.22-.433 28.425-1.385 42.636-2.088.511-.027 1.044.351 1.566.538-.386.295-.731.714-1.165.865l.006.002Zm36.373-18.827c-9.614 6.837-20.823 8.898-32.392 9.442-15.775.744-31.543 1.748-47.325 2.23-5.672.173-11.409-.632-17.063-1.388-4.979-.666-9.877-1.915-14.821-2.858-13.507-2.577-25.681-8.241-36.205-16.932-7.593-6.269-14.495-13.43-18.625-22.658-6.236-13.932-7.998-28.237-3.054-42.968 1.762-5.249 3.668-10.449 5.595-15.637.319-.862 1.09-1.558 1.651-2.332.055.818.217 1.645.151 2.455-.55 6.637-.051 13.203 1.757 19.596 4.702 16.631 12.354 31.41 26.014 42.715 7.866 6.509 15.775 12.739 24.938 17.43 6.785 3.474 13.727 5.973 21.286 6.026 11.443.077 22.961.4 34.315-.719 8.881-.876 17.672-3.409 26.311-5.872 15.621-4.452 31.179-9.149 46.599-14.247 7.843-2.591 15.326-6.278 22.973-9.462.458-.19.931-.334 1.397-.499-.296.505-.488 1.128-.904 1.497-4.038 3.566-8.111 7.092-12.176 10.627l.368.492c-10.247 7.708-20.341 15.631-30.788 23.06l-.002.002Zm137.655-118.21c3.497-2.817 7.255-5.31 10.896-7.949.092.193.186.383.278.575-4.007 4.069-7.955 8.192-12.026 12.196-8.403 8.266-16.773 16.573-25.345 24.661-5.432 5.123-10.789 10.501-16.929 14.654-8.692 5.876-17.35 11.82-26.548 17.023-20.189 11.416-41.081 21.155-63.167 28.059-17.47 5.462-35.277 9.856-52.964 14.604-10.384 2.785-21.042 1.768-31.61 1.86-2.952.025-5.907-.127-8.855-.307-6.142-.371-11.72-2.33-17.294-5.048-15.178-7.399-26.878-18.656-37.037-31.784-1.04-1.344-1.912-2.877-2.582-4.44a458.303 458.303 0 0 1-5.88-14.36c-3.167-8.123-3.133-16.624-2.747-25.149.019-.436.332-.858.509-1.286.372.347.844.635 1.105 1.05 4.027 6.483 8.441 12.662 13.497 18.404 2.86 3.248 5.052 7.106 8.05 10.205 5.044 5.211 10.41 10.121 15.796 14.985 2.547 2.301 5.43 4.232 8.19 6.291 11.153 8.326 24.133 10.892 37.607 11.852 3.81.273 7.649.246 11.439.67 11.29 1.261 22.121-1.102 32.834-4.115 7.484-2.106 14.802-4.797 22.253-7.029 6.618-1.984 13.249-4.005 19.994-5.456 12.13-2.605 23.329-7.649 34.162-13.305 14.203-7.417 27.932-15.739 41.87-23.66 8.603-4.888 16.272-11.099 24.301-16.811 7.113-5.062 13.451-10.95 20.203-16.386v-.004Zm60.803-74.733c-.175.555-.244 1.175-.54 1.655-6.17 9.953-12.27 19.949-18.621 29.782-1.655 2.562-3.981 4.754-6.246 6.848-4.084 3.766-8.353 7.33-12.548 10.977.082.119.159.238.24.357-9.054 6.378-18.115 12.75-27.161 19.141a30.357 30.357 0 0 0-2.848 2.275c-7.478 6.76-16 12.163-23.877 18.379-12.149 9.589-25.851 16.53-39.01 24.428-12.449 7.472-25.456 13.756-38.823 19.333-3.015 1.257-6.178 2.332-9.379 2.927-11.614 2.165-22.633 6.294-33.848 9.806-8.076 2.526-16.289 4.681-24.546 6.537-4.351.981-8.967 1.584-13.388 1.284-10.191-.691-20.423-.385-30.567-2.596-9.787-2.133-17.996-6.751-25.729-12.747-7.149-5.541-13.746-11.629-19.181-18.867-8.609-11.466-18.313-22.164-24.867-35.085-.693-1.365-1.202-2.822-1.799-4.238 1.455.311 2.958.474 4.355.956 9.927 3.431 18.485 9.036 26.445 15.878 18.623 16.004 40.294 25.203 64.691 28.105 10.545 1.255 21.078 2.159 31.698 1.351 1.211-.092 2.432-.14 3.627-.349 25.585-4.449 51.053-9.324 74.522-21.214 18.282-9.263 36.784-18.123 54.765-27.938 12.236-6.678 23.633-14.877 35.615-22.044 7.255-4.341 13.002-10.385 19.349-15.75 1.961-1.656 3.426-3.885 5.211-5.762 7.758-8.147 15.558-16.251 23.327-24.383 2.624-2.746 5.196-5.539 7.827-8.278.336-.349.868-.514 1.306-.764v-.004Zm20.629-56.622c.113.484.435 1.036.305 1.449-2.442 7.862-3.488 16.04-8.01 23.401-4.623 7.525-9.744 14.633-15.049 21.613-3.96 5.209-8.662 9.86-13.071 14.725-2.322 2.559-4.704 5.071-7.094 7.566a7629.923 7629.923 0 0 1-21.963 22.852c-1.687 1.745-3.483 3.391-5.23 5.079l.181.295c-7.163 4.85-14.198 9.898-21.516 14.497-8.756 5.503-17.602 10.904-26.683 15.844-11.948 6.495-24.141 12.545-36.275 18.696-8.449 4.282-16.848 8.697-25.493 12.545-13.322 5.931-27.481 9.201-41.684 12.263-11.023 2.38-22.009 4.944-33.394 4.7-20.823-.447-41.109-3.372-60.074-12.679-8.742-4.29-16.583-9.956-23.918-16.213-7.044-6.009-14.674-10.863-23.067-14.629-.315-.14-.681-.184-.977-.355-.426-.246-.81-.568-1.213-.858.332-.349.616-.771 1.006-1.031 1.524-1.023 3.149-1.103 4.948-.71 5.08 1.112 10.186 2.11 15.293 3.104 7.827 1.522 15.668 2.963 23.491 4.51 11.915 2.357 23.771 5.039 35.738 7.098 16.959 2.921 33.945 4.253 51.288 2.994 21.602-1.568 42.37-6.658 63.212-11.85 10.852-2.706 20.74-7.495 30.321-13.063 7.303-4.243 14.708-8.32 21.846-12.827 8.18-5.165 16.184-10.623 24.128-16.149 5.685-3.952 11.18-8.178 16.689-12.376 2.76-2.105 5.535-4.24 8-6.668 8.13-8.017 16.157-16.12 23.3-25.087 4.298-5.397 9.355-10.186 13.956-15.347 4.136-4.637 8.08-9.445 12.18-14.113a312.13 312.13 0 0 1 8.418-9.173c2.985-3.14 6.056-6.203 9.113-9.276.355-.355.862-.558 1.303-.831l-.005.004Zm20.577-55.66c.48-.354 1.113-.506 1.675-.75-.076.667.027 1.42-.255 1.987-1.38 2.77-2.683 5.605-4.345 8.207-5.232 8.192-9.486 16.856-12.844 25.955-2.202 5.972-5.808 10.768-10.394 15.205-7.328 7.089-14.122 14.731-21.103 22.176a1237.836 1237.836 0 0 0-14.088 15.253c-3.948 4.353-7.978 8.653-11.66 13.225-7.195 8.928-14.844 17.383-23.427 25.106-8.53 6.229-17.113 12.39-25.579 18.71-15.41 11.501-32.333 20.52-48.993 29.957-6.476 3.666-13.462 6.263-20.744 7.992-8.764 2.079-17.506 4.261-26.253 6.403a197.99 197.99 0 0 1-47.926 5.674c-12.612-.052-25.289-1.718-37.799-3.588-14.403-2.157-28.667-5.251-42.959-8.095-7.485-1.488-14.903-3.323-22.354-4.975-1.367-.302-1.891-.776-.633-1.893 5.118-4.533 10.562-8.028 17.744-8.808 10.754-1.168 21.468-1.038 32.239-.794 17.523.395 35.085.913 52.517-1.543 10.122-1.424 20.153-3.467 30.27-4.946 8.575-1.25 17.218-2.018 25.815-3.129 15.435-1.994 29.822-7.336 43.858-13.819 13.919-6.428 28.253-12.006 41.512-19.787 5.648-3.314 11.247-6.8 16.464-10.74 13.011-9.825 25.965-19.739 38.594-30.042 8.176-6.669 15.909-13.934 22.295-22.433 5.898-7.848 11.562-15.875 17.531-23.669 2.2-2.873 5.19-5.136 7.457-7.967 4.088-5.102 7.925-10.405 11.823-15.66 3.501-4.72 6.746-9.656 11.571-13.207l-.009-.004Zm-61.294 58.581c3.03-1.831 5.938-3.863 9.587-6.251-10.706 15.094-24.884 25.31-37.963 36.602-7.98 6.89-16.585 13.107-25.256 19.126-12.645 8.775-26.408 15.589-40.517 21.711-8.06 3.497-16.059 7.144-24.105 10.681-13.278 5.837-27.297 8.858-41.631 10.332-15.874 1.63-31.571 4.367-47.342 6.651-11.096 1.61-22.462 1.635-33.717 1.8-12.145.177-24.299-.303-36.448-.526-.528-.011-1.05-.307-1.574-.472.386-.319.722-.739 1.163-.942 8.125-3.762 16.422-7.194 24.357-11.317 10.496-5.451 21.88-7.345 33.277-9.284 11.946-2.034 23.976-3.6 35.901-5.75 7.476-1.347 14.902-3.132 22.222-5.173 15.975-4.456 31.915-9.051 47.784-13.871 13.042-3.961 26.191-7.736 38.876-12.658 16.05-6.23 31.425-14.03 46.118-23.108 9.675-5.979 19.529-11.67 29.266-17.549l.002-.002Zm42.544-49.839c-.054.66.123 1.476-.2 1.954-5.036 7.487-10.364 14.727-16.594 18.999-12.123 10.503-23.823 18.808-36.272 26.08-13.395 7.825-26.483 16.215-40.156 23.516-16.601 8.865-33.844 16.387-52.273 20.857-5.025 1.217-9.854 3.223-14.825 4.691-17.735 5.238-35.447 10.57-53.266 15.508-6.151 1.703-12.579 2.432-18.899 3.495-7.518 1.263-15.054 2.415-22.591 3.576-.768.117-1.578-.038-2.37-.065.589-.622 1.078-1.42 1.788-1.841 5.484-3.259 10.981-6.502 16.532-9.644 23.725-13.428 48.532-24.677 73.101-36.426 18.263-8.736 37.278-15.537 55.895-23.352 24.316-10.207 48.709-20.224 72.962-30.573 12.044-5.138 23.855-10.831 35.774-16.265.451-.205.929-.34 1.396-.508l-.002-.002Zm-76.094-10.69c4.05.444 8.268-.596 12.403-1.016 10.673-1.081 21.333-2.313 32.02-3.255 12.861-1.131 25.675.439 38.506 1.028.754.035 1.493.37 2.239.563-.729.403-1.424.906-2.199 1.188-1.61.587-3.24 1.144-4.902 1.553-4.027.992-8.14 1.694-12.105 2.886-4.056 1.217-8.148 1.284-12.303 1.38-5.179.119-10.353.499-15.526.766-4.835.25-9.669.524-14.508.737-2.251.1-4.507.035-6.756.125-9.347.378-18.721.49-28.036 1.263-11.053.915-22.059 2.405-33.083 3.654-.86.096-1.732.18-2.565.394-19.368 5-39.133 8.535-57.347 17.525-12.818 6.326-26.24 11.447-38.472 18.944-6.032 3.697-11.817 7.796-17.69 11.744-12.307 8.269-22.798 18.735-33.867 28.468-8.207 7.213-16.412 14.408-24.886 21.303-9.704 7.9-18.345 16.909-26.744 26.139-4.641 5.1-8.746 10.687-13.372 15.798-5.196 5.739-10.666 11.234-16.115 16.737-1.825 1.842-3.929 3.416-5.967 5.036-.462.365-1.173.418-1.771.614-.167-.627-.576-1.303-.459-1.871 1.13-5.43 1.697-11.092 3.67-16.209 4.723-12.255 9.859-24.368 15.324-36.31 3.681-8.04 9.155-14.971 15.398-21.305 3.507-3.558 6.438-7.675 9.858-11.324 7.342-7.827 14.831-15.512 22.259-23.258 9.333-7.624 19.289-14.165 29.379-20.61 8.606-5.5 17.468-10.458 26.738-14.608 11.789-5.28 23.815-10.036 35.782-14.917 2.06-.841 4.321-1.21 6.509-1.72 4.71-1.098 9.393-2.357 14.153-3.167 7.839-1.334 15.729-2.38 23.6-3.508 5.148-.739 10.301-1.478 15.468-2.085 3.265-.385 6.558-.57 9.842-.773 3.461-.213 6.927-.388 10.392-.493 6.406-.196 12.815-.325 19.22-.488 1.555-.04 3.121-.006 4.666-.165 7.065-.74 14.069-1.543 21.251-.758l-.004-.004Zm-69.231-18.47c4.764-.308 9.313.525 13.931 1.41 6.297 1.207 12.696 1.898 18.978 3.173 6.95 1.41 13.818 3.222 20.716 4.888.263.062.453.42.677.639-.391.215-.769.58-1.176.615-3.102.276-6.204.577-9.315.698-6.579.252-13.161.388-19.742.597-3.816.12-7.654.08-11.441.484-9.303.994-18.558 2.729-27.879 3.194-12.942.645-25.214 4.474-37.716 7.105-7.169 1.507-13.958 4.935-20.829 7.723-12.625 5.117-25.282 10.225-37.087 17.077-7.305 4.24-14.182 9.218-21.443 13.54a127.72 127.72 0 0 0-23.502 17.989c-8.954 8.658-17.929 17.316-25.528 27.279-3.241 4.25-6.919 8.18-10.527 12.138-5.296 5.81-9.255 12.516-12.459 19.579-4.642 10.228-9.189 20.545-12.911 31.128-2.516 7.146-3.549 14.815-5.23 22.253-.457 2.028-.802 4.08-1.307 6.092-.2.794-.572 1.616-1.085 2.247-1.228 1.507-2.531 1.424-3.071-.336-1.165-3.792-2.583-7.61-2.99-11.512-1.551-14.888-1.601-29.765.319-44.688 1.522-11.815 5.677-22.391 12.61-31.947 1.62-2.234 3.533-4.28 5.466-6.263 4.236-4.341 8.397-8.777 12.902-12.827 8.422-7.575 15.308-16.439 22.047-25.437 6.342-8.468 13.021-16.604 21.021-23.168 19.352-17.142 41.715-27.352 66.722-32.082a104.822 104.822 0 0 0 10.105-2.414c8.192-2.413 16.589-3.399 25.049-4.334 8.428-.933 16.792-2.532 25.138-4.098 5.512-1.036 10.963-1.372 16.56-.852 4.303.399 8.681.392 12.997.115v-.004Zm-34.801-16.895c6.376 1.599 12.992 2.215 19.445 3.536 5.929 1.215 11.79 2.77 17.669 4.215.417.105.758.52 1.133.792-.434.158-.872.459-1.307.455-5.202-.042-10.428.14-15.603-.28-5.963-.484-11.811-.023-17.594 1.213-10.871 2.32-21.806 4.11-32.905 4.854-1.726.115-3.482.263-5.154.678-14.594 3.62-29.273 6.955-43.724 11.076-11.833 3.374-22.525 9.376-32.848 16.113-9.088 5.932-17.168 13.063-24.767 20.62-6.203 6.17-11.412 13.383-16.715 20.394-6.392 8.451-13.662 16.046-21.238 23.401-8.56 8.31-16.777 16.819-22.623 27.479-4.556 8.309-6.318 17.195-7.522 26.3-1.898 14.344-2.174 28.767-.32 43.118.723 5.591 2.762 11.008 4.192 16.51.33 1.269 1.157 2.58-.799 3.446-1.286.568-2.167.865-2.933-.682-1.374-2.777-3.086-5.403-4.272-8.255-1.858-4.46-3.367-9.063-5.077-13.583-1.854-4.906-2.727-9.971-3.048-15.207-.393-6.393-1.527-12.754-1.687-19.145-.504-19.689 4.69-37.819 14.251-55.116 7.403-13.399 16.741-25.272 26.046-37.216 5.41-6.942 11.667-13.224 17.458-19.709 5.491-3.628 10.827-7.156 16.17-10.683.29-.19.647-.3.893-.534 6.378-6.09 14.443-9.324 22.17-13.15 13.585-6.73 26.875-14.137 40.79-20.089 11.069-4.735 22.656-8.894 34.427-11.199 14.988-2.933 30.341-3.158 45.5.64l-.008.008Zm-126.267 3.511c2.468-1.198 5.107-2.033 7.656-3.067 2.549-1.029 5.048-2.192 7.635-3.12 4.052-1.456 8.065-3.473 12.253-4.003 13.439-1.702 26.951-2.804 40.515-1.265 1.035.117 2.073.223 3.106.359.343.046.672.171 1.009.257-.314.355-.564.902-.955 1.037-4.568 1.566-9.092 3.326-13.754 4.543-12.651 3.303-23.954 9.654-35.552 15.347-9.892 4.856-19.787 9.712-29.569 14.783-3.82 1.98-7.394 4.456-10.968 6.873-3.717 2.514-7.109 5.552-10.974 7.792-8.43 4.885-14.831 11.846-20.848 19.274-6.731 8.305-13.808 16.355-20.111 24.975-12.213 16.711-22.575 34.475-26.619 55.121-2.376 12.134-3.271 24.425-1.163 36.755.234 1.365.451 2.751.47 4.131.224 14.771 6.14 27.87 12.053 40.956.772 1.707 2.14 3.138 3.064 4.789.21.372-.112 1.386-.5 1.649-.4.27-1.49.219-1.736-.102-1.246-1.647-2.298-3.443-3.455-5.159-4.733-7.029-9.779-13.871-14.148-21.122-6.264-10.388-11.554-21.132-12.126-33.75-.344-7.61-1.132-15.165-.841-22.829.388-10.268 3.062-19.982 7.309-29.068 5.472-11.71 11.568-23.197 18.257-34.258 6.677-11.04 13.952-21.794 21.844-31.995 6.217-8.033 13.769-15.033 20.725-22.49 6.671-5.406 13.429-10.293 21.408-13.688 8.869-3.775 17.328-8.51 26.013-12.727l.002.002Zm-62.392 13.91c5.207-2.596 9.696-6.596 14.692-9.663 6.515-4.002 13.482-6.74 21.244-7.537 6.182-.637 12.283-2.031 18.429-3.046.71-.117 1.465.05 2.2.083-.49.458-.91 1.065-1.488 1.351-7.101 3.51-14.072 7.345-21.381 10.357-11.299 4.66-20.637 11.949-29.088 20.48-9.239 9.33-18.001 19.123-25.35 30.046-8.566 12.733-17.384 25.33-23.577 39.49-.828 1.893-1.747 3.776-2.878 5.501-6.063 9.244-9.454 19.562-12.268 30.118-.4 1.503-.67 3.05-.856 4.597-1.557 13.006-.992 25.978.931 38.894 1.317 8.85 4.856 16.953 9.43 24.525 4.188 6.936 8.948 13.525 13.38 20.316 2.076 3.177 3.938 6.489 5.963 9.7.785 1.244.316 1.584-.852 2.183-3.732 1.913-7.098 1.896-10.612-.691-6.4-4.714-13.042-9.117-16.085-13.376-5.959-6.672-9.473-11.547-11.936-17.167a98.133 98.133 0 0 0-4.412-8.771c-4.655-8.247-5.682-17.253-6.244-26.504-.81-13.386 2.138-26.239 4.946-39.101 1.025-4.691 2.944-9.241 4.883-13.664 3.745-8.539 7.756-16.968 11.735-25.402C63.88 96.329 70.31 86.517 77.34 77.133c6.716-8.967 13.58-17.861 20.917-26.32 5.645-6.51 11.794-12.562 19.794-16.554Zm-12.869-1.402c-.346.526-.522 1.006-.866 1.284-7.971 6.493-14.548 14.318-20.77 22.393-7.674 9.959-15.235 20.034-22.217 30.481-4.484 6.71-8.004 14.092-11.65 21.328-3.342 6.633-6.18 13.516-9.409 20.208-3.257 6.756-5.635 13.777-7.006 21.14-1.211 6.485-2.942 12.929-3.458 19.47-1.023 12.995-1.455 26.229 3.508 38.515 3.46 8.562 7.712 16.89 12.658 24.842 5.54 8.915 13.221 15.435 21.408 21.587.413.309.812.65 1.15 1.038.219.248.313.601.463.91-.273.077-.547.217-.818.213-.34-.006-.679-.127-1.019-.196-8.411-1.706-15.295-5.938-21.086-12.255-5.896-6.43-10.468-13.746-14.756-21.249-5.334-9.339-7.228-19.788-8.838-30.216-1.801-11.66-3.088-23.402-2.142-35.245.178-2.236.458-4.495 1.005-6.662a327.247 327.247 0 0 1 4.02-14.531c3.303-10.936 7.337-21.479 14.34-30.769 7.567-10.04 14.544-20.52 22.02-30.632 3.276-4.432 7.103-8.463 10.759-12.607 4.46-5.053 9.086-9.955 13.489-15.055 5.248-6.084 10.793-10.26 19.213-13.994l.002.002Z" fill="url(#leaf-1__a)"/><defs><linearGradient id="leaf-1__a" x1="431.066" y1="-40.588" x2="34.412" y2="356.066" gradientUnits="userSpaceOnUse"><stop stop-color="#99866C"/><stop offset=".204" stop-color="#786141"/><stop offset=".724" stop-color="#B6A791"/><stop offset="1" stop-color="#CCC1B3"/></linearGradient></defs></svg>