<svg width="330" height="361" fill="none" xmlns="http://www.w3.org/2000/svg"><path d="M325.492 230.288c-1.959-4.114-4.023-8.262-6.642-11.965-4.484-6.34-7.627-13.136-8.831-20.792-1.071-6.834-4.202-12.629-8.499-17.944-2.3-2.839-4.633-5.741-6.377-8.93-7.709-14.103-20.048-22.614-34.255-28.975-3.886-1.739-7.81-3.4-11.646-5.248-28.9-13.891-58.738-13.513-88.925-5.513-11.584 3.068-12.879 2.342-12.04-9.458.822-11.575 2.561-23.224 1.922-34.733-1.009-18.189-3.492-36.302-5.7-54.408-1.001-8.204-3.642-15.847-8.761-22.727-6.53-8.776-14.713-11.338-24.897-8.477-17.433 4.895-32.176 14.726-45.063 26.899-9.263 8.751-17.321 18.91-25.047 29.103-3.928 5.181-6.975 11.559-8.57 17.86-2.146 8.491-2.74 17.413-3.59 26.186-1.711 17.607-2.803 35.281-4.792 52.855-1.827 16.146.183 31.092 11.081 43.813 5.422 6.331 6.63 13.485 5.323 21.357-.748 4.508-1.757 8.98-2.388 13.505-1.428 10.251-4.205 20.605-3.69 30.777.876 17.333-3.6 32.474-13.435 46.349-6.344 8.947-12.933 17.72-19.194 26.725-1.054 1.515-1.947 4.422-1.2 5.58.86 1.337 3.737 2.192 5.535 1.922 3.242-.486 6.364-1.872 9.478-3.043 11.537-4.334 23.457-7.174 35.688-4.924 11.903 2.188 23.648 5.397 35.323 8.669 23.457 6.572 46.831 13.406 74.212 14.456 18.363 2.927 38.378-1.054 57.671-9.831 3.845-1.748 7.98-3.002 12.094-4.002 18.205-4.43 33.724-13.921 47.67-25.932 7.415-6.385 14.597-12.729 23.275-17.537 21.937-12.148 36.24-46.503 24.275-71.613l-.005-.004ZM46.497 61.787c8.466-10.371 16.586-21.34 26.609-30.034 9.756-8.465 21.14-15.627 32.869-21.095 14.228-6.634 20.613-5.272 28.29 12.132 2.976 6.746 3.117 14.771 4.359 22.245.49 2.935.452 5.961.768 10.586-6.099-11.558-14.091-18.653-25.695-20.737-17.969-3.23-33.272 2.283-45.395 15.56-11.496 12.592-22.046 26.007-29.573 41.5-.419.86-1.22 1.533-1.847 2.292-.116-.888-.37-1.785-.324-2.665.56-10.844 2.969-21.244 9.94-29.788v.004Zm3.957 24.756c6.423-10.927 14.643-20.978 23.108-30.482 9.541-10.711 21.747-16.42 36.681-14.165 6.194.934 11.944 2.98 15.922 7.95 9.503 11.874 14.576 25.7 16.856 40.617.182 1.183 0 2.432-.125 3.64-.062.578-.403 1.126-.839 2.28-1.777-4.625-3.271-8.852-5.007-12.978-8.419-20.024-19.392-21.618-35.518-19.007-15.797 2.558-28.758 10.745-38.424 24.072-10.624 14.647-17.977 30.951-25.47 47.225-1.08 2.346-2.122 4.713-3.936 8.748-.166-22.315 6.705-40.807 16.752-57.904v.004Zm-2.288 124.282c.851-12.144.457-24.541 2.857-36.369 4.014-19.791 14.493-36.672 28.352-51.261 4.782-5.032 9.976-10.01 15.86-13.564 5.322-3.213 11.715-4.949 17.86-6.406 5.065-1.204 9.844 1.009 12.783 5.314 6.784 9.935 11.098 20.916 12.38 32.965.088.834-.344 1.723-.535 2.586-.577-.523-1.304-.951-1.702-1.586-1.458-2.325-2.632-4.841-4.231-7.058-6.348-8.826-16.549-10.856-25.741-5.127-10.038 6.261-17.947 14.693-23.93 24.806-12.775 21.581-22.129 44.561-28.045 68.981-2.71 11.193-6.148 22.216-9.424 33.264-.482 1.619-1.906 2.956-2.894 4.425-.187-1.677-.374-3.35-.481-4.338 2.142-12.418 4.247-24.113 6.127-35.846.57-3.546.507-7.195.76-10.79l.004.004Zm-6.456-24.093c-.025 1.321-.685 2.624-1.05 3.94-.793-1.241-1.968-2.387-2.308-3.744-1.383-5.535-2.508-11.131-3.467-15.52 2.113-8.511 3.143-15.855 5.763-22.577 7.498-19.247 15.984-38.025 28.007-55.055 8.374-11.862 19.65-18.737 33.492-21.95 1.756-.407 3.583-.673 5.381-.71 12.135-.258 17.922 3.32 22.415 14.663 2.673 6.751 4.608 13.797 6.759 20.747.22.705-.366 1.66-.577 2.499-.632-.527-1.404-.951-1.877-1.594-8.233-11.218-14.838-13.597-28.161-10.525-10.724 2.474-19.576 7.996-27.29 15.669-10.881 10.819-19.824 22.992-26.711 36.734-5.93 11.828-10.139 24.051-10.38 37.432l.004-.009ZM26.802 319.625c-.93.647-2.151.884-3.235 1.307.254-1.021.25-2.225.806-3.043 15.876-23.44 25.778-49.6 33.305-76.553 4.654-16.674 7.784-33.783 14.892-49.684 4.712-10.541 9.628-21.028 15.158-31.154 5.327-9.757 12.804-17.865 22.394-23.731 5.464-3.343 9.578-2.811 14.046 1.386 4.164 3.911 9.69 18.546 9.167 24.271-.158 1.212-.216 2.45-.494 3.633-1.063 4.517-1.885 4.928-6.311 2.885-4.094-1.893-8.117-1.876-12.405-.539-10.654 3.325-18.779 9.889-25.106 18.894-11.504 16.37-18.89 34.683-24.81 53.607-4.987 15.943-9.462 32.047-14.062 48.106-3.803 13.273-12.31 22.905-23.345 30.619v-.004Zm73.688-100.21c-7.236 3.919-12.152 9.86-15.892 17.142-6.386 12.43-13.145 24.67-19.8 36.963-.407.751-1.25 1.262-1.889 1.889-.2-.752-.739-1.603-.548-2.238 6.942-23.274 13.057-46.864 24.674-68.433 4.475-8.311 9.167-16.648 17.076-22.319 3.412-2.45 7.153-4.629 11.039-6.199 6.747-2.719 9.296-1.324 11.534 5.555.747 2.3 1.199 4.696 1.901 7.486-4.38 8.772-4.941 20.098-16.802 24.175-3.977 1.366-7.535 3.953-11.288 5.979h-.005Zm5.941 6.136c-1.208 3.213-1.86 6.805-3.728 9.57-7.29 10.765-14.963 21.277-22.523 31.86-.519.726-1.279 1.279-2.254 2.229-.07-1.071-.411-1.955-.12-2.52 5.33-10.499 10.694-20.982 16.17-31.403.826-1.574 2.014-3.16 3.434-4.177 2.86-2.055 5.999-3.728 9.021-5.555v-.004Zm-38.116 65.244c18.097-17.126 31.885-37.482 44.738-58.593 3.318-5.447 7.038-10.653 10.662-15.909.614-.889 1.665-1.474 2.516-2.201.585 1.246 1.324 2.45 1.702 3.753.241.827-.058 1.811-.232 4.646-4.596 20.26-10.537 41.555-29.27 57.078-13.887 11.504-27.671 22.905-44.133 30.565-1.195.556-2.623.606-3.944.892.528-1.008.868-2.196 1.615-3.001 5.39-5.804 10.608-11.795 16.35-17.23h-.004Zm-17.006 34.127c-.303.029-.614-.041-.913-.012-2.636.261-5.273.535-7.91.805 2.525-1.723 4.85-3.915 7.607-5.094 22.764-9.727 42.094-24.42 59.851-41.322 10.201-9.707 15.44-22.465 20.028-35.41 2.022-5.7 3.4-11.662 4.641-17.595 1.391-6.659.665-13.331-1.021-19.899-.444-1.731-1.42-3.649-1.038-5.206.71-2.861 2.246-5.518 3.438-8.258 2.262 1.914 5.538 3.384 6.597 5.821 3.126 7.186 5.92 14.618 7.822 22.211 2.05 8.183 2.951 16.653 4.047 23.192-2.852 18.022-7.805 32.807-20.899 43.518-11.779 9.636-23.117 20.061-37.47 25.844-14.373 5.792-29.236 10.014-44.776 11.401l-.004.004Zm29.046 7.399a5.05 5.05 0 0 0-.046.274c-3.894-.503-7.789-1.001-11.679-1.503 3.728-1.437 7.349-3.421 11.21-4.214 18.118-3.704 33.404-12.775 47.479-24.292 1.652-1.353 3.105-2.981 4.87-4.152 14.473-9.603 22.818-23.299 27.119-39.844 2.179-8.399 3.118-16.91 1.216-25.338-2.528-11.205-5.825-22.236-8.735-33.354-.199-.764-.245-1.952.191-2.384.394-.394 1.835-.357 2.321.059 5.742 4.953 12.243 9.341 16.876 15.195 8.462 10.686 13.427 23.278 13.473 37.066.033 9.533-3.396 18.563-7.793 26.941-3.807 7.257-7.502 15.008-13.057 20.804-7.282 7.602-15.723 14.552-24.778 19.899-14.551 8.59-31.366 11.276-47.703 14.801-3.491.751-7.299.062-10.956.037l-.008.005Zm46.49 15.336c-9.175-2.08-18.255-4.575-27.36-6.954-.78-.204-1.49-.664-2.233-1.005.727-.515 1.387-1.304 2.192-1.503a205.973 205.973 0 0 1 10.641-2.362c21.136-4.152 39.906-13.414 55.222-28.36 11.658-11.38 19.33-25.853 23.856-41.518 7.884-27.31-2.118-49.359-21.631-68.158-1.955-1.885-4.396-3.255-6.518-4.982-.735-.598-1.183-1.545-1.764-2.334.892-.054 1.918-.427 2.653-.112 5.011 2.155 10.08 4.218 14.896 6.755 9.814 5.165 18.259 12.235 25.579 20.468 8.839 9.948 12.758 19.899 11.421 42.514-1.814 15.257-7.39 32.234-19.625 47.433-16.026 19.912-36.975 31.204-60.279 39.367-2.192.768-4.857 1.249-7.05.751Zm58.328 2.682c-1.997 1.528-5.161 2.242-7.751 2.163-9.691-.295-19.368-1.075-29.884-1.727 7.406-3.994 14.178-7.336 20.642-11.189 35.285-21.028 54.3-51.543 53.424-93.239-.27-12.887-4.787-24.42-13.721-33.94-16.296-17.363-35.232-29.893-59.66-32.251-.822-.079-1.607-.54-2.408-.826.689-.561 1.361-1.59 2.063-1.607 5.422-.128 11.039-.98 16.233.112 18.778 3.949 35.501 12.256 50.057 24.977 11.609 10.143 16.653 23.727 20.859 37.818 3.753 12.567 3.387 24.981-.283 37.731-5.903 20.497-14.514 39.433-29.302 54.964-6.054 6.357-13.261 11.658-20.269 17.018v-.004Zm23.544-6.257c-.776.337-1.627.515-2.441.768.457-.863.739-1.901 1.399-2.565 21.626-21.826 32.657-48.862 37.831-78.501 1.004-5.746-.241-12.247-1.848-18.014-2.927-10.483-5.667-21.328-10.691-30.856-10.802-20.497-29.867-31.54-50.667-39.69-9.375-3.674-19.227-5.804-29.419-5.812-.76 0-1.52-.553-2.284-.852.631-.614 1.155-1.515 1.914-1.806 10.546-4.06 21.382-4.903 32.213-1.664 15.872 4.745 28.502 14.913 40.654 25.607 21.967 19.322 32.616 44.295 35.476 72.938.328 3.296-.34 6.696-.548 10.047-.764 17.18-8.947 31.391-18.857 44.639-8.527 11.405-19.563 20.049-32.732 25.765v-.004Zm81.905-74.378c-2.661 13.265-6.46 25.77-13.289 37.54-3.044 5.244-6.647 9.537-11.559 12.621-7.739 4.862-15.768 9.271-23.739 13.755-.847.477-2.13.183-3.214.249.494-1 .768-2.229 1.52-2.968 8.158-7.992 13.929-17.512 19.293-27.551 8.93-16.715 10.072-34.152 7.024-52.299-5.38-32.068-22.107-56.929-48.23-75.798-3.952-2.852-7.876-5.758-11.969-8.399-13.792-8.897-28.676-13.074-45.163-10.138-1.013.178-2.159-.395-3.242-.615 1.017-.627 1.972-1.424 3.068-1.856 8.395-3.334 17.084-4.168 23.316-3.151 19.812 1.441 36.377 5.493 52.461 11.127 10.869 3.807 19.272 11.944 26.654 20.385 9.408 10.753 17.396 22.585 22.772 36.165 6.61 16.694 7.83 33.355 4.297 50.938v-.005Zm6.145 26.094c-1.25.652-2.74.843-4.123 1.245-.041-1.457-.39-2.98-.083-4.359 2.321-10.354 5.576-20.567 7.025-31.034 3.628-26.156-5.078-49.173-19.654-70.413-7.482-10.898-16.159-20.729-27.065-28.24-5.178-3.566-10.874-6.775-16.794-8.781-15.565-5.272-31.454-9.457-49.605-10.159-11.239-2.279-23.212.656-34.858 5.767-1.004.44-2.225.39-3.346.564.673-1.129 1.075-2.636 2.055-3.325 9.051-6.402 19.148-10.541 29.988-12.592 29.984-5.676 57.028 3.147 83.175 16.864 9.998 5.244 18.305 11.932 24.043 21.726 1.536 2.624 3.247 5.202 5.223 7.502 6.111 7.108 9.748 15.129 11.405 24.454.871 4.911 3.894 9.49 6.252 14.066 1.528 2.964 3.666 5.613 5.435 8.461 16.196 26.093-1.113 58.925-19.077 68.258l.004-.004Z" fill="url(#leaf-4__a)"/><defs><linearGradient id="leaf-4__a" x1="164.918" y1="360.158" x2="164.918" y2="0" gradientUnits="userSpaceOnUse"><stop stop-color="#99866C"/><stop offset=".204" stop-color="#786141"/><stop offset=".724" stop-color="#B6A791"/><stop offset="1" stop-color="#CCC1B3"/></linearGradient></defs></svg>