<svg width="135" height="48" fill="none" xmlns="http://www.w3.org/2000/svg"><path d="M4.527 1.053v46.692H0V6.195c0-2.839 2.028-5.138 4.527-5.138v-.004Zm73.55 0v46.692h-4.526V6.195c0-2.839 2.028-5.138 4.526-5.138v-.004ZM62.724.255V48h-1.13L20.175 8.94v38.87h-4.603V0h1.058l41.495 38.87V.256h4.603-.004Zm59.303 32.978h-25.5l-7.168 14.512h-5.205L108.75.004h1.054l24.596 47.74h-5.282l-7.091-14.511Zm-12.752-25.82L98.186 29.84h22.182L109.275 7.413Z" fill="url(#Vector__a)"/><defs><linearGradient id="Vector__a" x1="67.2" y1="48" x2="67.2" y2="0" gradientUnits="userSpaceOnUse"><stop stop-color="#99786C"/><stop offset=".204" stop-color="#99786C"/><stop offset=".724" stop-color="#B69B91"/><stop offset="1" stop-color="#CCB9B3"/></linearGradient></defs></svg>