<svg xmlns="http://www.w3.org/2000/svg" width="512" height="266" fill="none" viewBox="0 0 512 266">
  <g clip-path="url(#a)">
    <path fill="#fff" d="M103.497 225.463c0-17.099 9.663-26.344 22.578-26.344 11.951 0 17.639 6.551 19.939 15.862l-8.269 2.34c-1.947-6.75-4.927-10.206-11.739-10.206-8.689 0-13.754 6.691-13.754 18.283 0 12.142 5.209 18.824 13.895 18.824 6.671 0 10.418-3.31 12.367-10.967l8.264 1.867c-2.504 10.141-8.83 16.965-20.703 16.965-13.2 0-22.578-9.034-22.578-26.624Zm48.014 7.378c0-13.515 8.97-19.035 17.989-19.035 8.967 0 18.001 5.52 18.001 19.035 0 13.388-9.034 19.038-18.001 19.038-8.956 0-17.989-5.65-17.989-19.038Zm27.37 0c0-6.821-2.912-11.788-9.381-11.788-6.176 0-9.369 4.41-9.369 11.788 0 6.965 2.848 11.934 9.369 11.934 6.188 0 9.381-4.416 9.381-11.934Zm14.634 18.28v-36.619h8.54v5.029c2.857-3.105 7.02-5.725 12.651-5.725 6.182 0 8.609 2.415 10.07 6.001 2.918-3.173 7.299-6.001 12.918-6.001 7.5 0 10.774 4.488 10.774 11.039v26.276h-8.548v-24.144c0-4.065-1.18-5.924-5.209-5.924-3.48 0-6.251 1.93-9.447 4.758v25.31h-8.545v-24.144c0-4.065-1.183-5.924-5.209-5.924-3.408 0-6.254 1.93-9.455 4.758v25.31h-8.54Zm62.828 13.795v-50.414h8.545v4.824c2.435-2.9 6.254-5.523 11.741-5.523 8.405 0 14.587 6.284 14.587 18.973 0 12.695-6.326 18.898-15.77 18.898-3.954 0-7.847-1.591-10.558-4.618v17.86h-8.545Zm26.334-32.075c0-7.722-3.337-11.788-8.827-11.788-3.544 0-6.946 2.207-8.962 4.613v14.693c2.294 2.965 5.625 4.553 8.677 4.553 6.467 0 9.112-3.929 9.112-12.071Zm12.322 9.454c0-7.931 6.805-13.248 24.033-15.181v-1.094c0-3.664-1.941-5.246-6.044-5.246-5.137 0-9.309 2.486-12.43 4.96l-4.17-5.311c3.96-3.586 10.145-6.62 17.78-6.62 9.866 0 13.275 4.699 13.275 13.242v15.107c0 4.413.278 7.104 1.039 8.966h-8.611c-.488-1.514-.839-2.62-.839-4.687-3.747 3.795-8.129 5.24-13.616 5.24-5.967 0-10.417-3.313-10.417-9.376Zm24.033-1.386v-8.071c-10.214 1.38-15.629 3.866-15.629 7.869 0 2.893 2.013 4.407 5.143 4.407 4.37 0 7.784-1.648 10.486-4.205Zm16.114 10.212v-36.619h8.549v5.856c2.779-3.17 7.083-6.552 13.2-6.552 6.733 0 10.905 3.447 10.905 10.691v26.624h-8.542v-24.206c0-4.003-1.668-6.07-5.559-6.07-3.753 0-6.883 1.859-10.004 4.761v25.515h-8.549Zm34.721 13.102 1.941-6.825c1.045.274 3.264.762 6.254.762 3.061 0 4.654-1.181 5.84-4.146l1.037-2.688-14.171-36.824h8.89l9.522 26.684h.135l9.449-26.684h8.474l-15.701 40.619c-2.429 6.411-5.622 10.208-12.918 10.208-4.376 0-6.946-.621-8.752-1.106ZM213.112 51.343V8.307h-15.835V.302h40.36v8.005h-15.842v43.036h-8.683Zm29.656 0V.303h8.617v19.379c2.357-2.477 6.805-5.65 13.478-5.65 6.458 0 10.627 3.797 10.627 11.03v26.281h-8.617V27.2c0-4.06-1.734-5.927-5.487-5.927-3.747 0-6.877 1.93-10.001 4.758v25.312h-8.617Zm38.536-18.276c0-13.935 9.935-19.035 17.579-19.035 8.267 0 16.183 4.892 16.183 19.787v2.007h-25.217c.348 6.617 4.445 9.516 9.87 9.516 4.792 0 7.571-1.585 10.345-4.279l4.52 4.413c-3.825 4.217-8.896 6.629-15.497 6.629-9.238 0-17.783-5.585-17.783-19.038Zm25.914-3.587c-.491-5.59-3.264-8.555-8.407-8.555-4.169 0-7.988 2.343-8.824 8.555h17.231Zm9.332 80.691s1.27-1.892 2.336-3.331c1.944-2.617 5.457-6.245 8.099-8.493.815-.684 1.764-1.466 1.764-1.466s-1.495.155-2.336.327c-2.007.39-4.951 2.332-6.425 3.586-2.426 2.058-5.092 5.413-3.891 8.386.18.429.453.991.453.991Zm13.49 3.583c3.834-.256 7.428-1.359 10.768-3.194 3.279-1.82 8.099-5.37 7.608-9.551-.159-1.348-1.046-2.37-2.172-2.85-1.468-.633-2.228-.52-4.1.024-1.354.399-1.962.637-3.241 1.365-3.768 2.171-9.097 6.813-11.993 10.522-.671.868-1.348 1.846-1.872 2.512-.341.408-.596.791-.566.895.114.426 4.067.384 5.568.277Zm-9.767 7.122c-.393.408-.809 1.419-1.246 2.147-.231.387-.662.886-.944 1.083-.997.728-1.839.761-2.809-.081-1.348-1.177-2.127-3.018-2.184-4.802-.03-.782.099-1.636-.042-2.302-.248-1.106-1.369-2.242-1.968-3.304-.707-1.258-1.279-3.431-1.348-4.835-.248-4.383 2.082-8.416 5.107-11.604 3.043-3.22 7.024-5.897 11.358-7.713 4.092-1.72 10.094-2.885 14.59-1.336 1.458.5 3.501 1.737 4.525 3.025.216.273.396.57.62.71.195.125.719.176 1.136.25 1.437.247 3.504 1.323 4.346 2.04 1.686 1.454 2.621 2.843 3.049 4.856.862 4.047-1.486 8.493-4.161 11.193-4.585 4.66-9.111 7.928-14.976 10.212-2.569.999-6.58 1.93-9.503 1.668-.905-.074-1.842-.309-2.723-.374-.446-.039-2.097-.452-2.27-.583-.219-.158-.498-.306-.557-.25Zm-139.825 11.961c2.435-.149 3.944-.265 5.846-1.083 1.052-.443 2.268-1.46 1.669-2.673-.363-.744-1.651-1.002-2.403-.946-2.549.17-4.385 2.031-5.256 4.52-.033.089-.024.182.144.182Zm10.656-6.254c1.42 1.763 2.061 3.833 2.22 6.105.159 2.29-.578 4.493-1.863 6.239-2.205 2.973-5.883 4.457-9.573 4.731-.506.033-3.516.122-4.289-.116-.141-.051-.228-.104-.305-.083-.087.009-.593 2.072-.686 2.792-.33 2.531-.731 4.321-1.025 6.313-.245 1.582-.422 3.28-.563 4.969-.832 9.844-.545 14.706.276 24.338.057.588.087 1.257 0 1.662-.222 1.157-.929 1.963-2.067 2.254-3.42.892-6.691-2.468-8.368-5.156-3.918-6.284-2.639-19.125-1.51-25.468.461-2.625 1.665-8.457 2.501-10.556.443-1.13 1.153-3.352 1.099-3.459-.048-.098-1.839-.776-3.48-1.403-.617-.224-2.687-1.291-3.574-1.838-1.824-1.136-3.073-2.061-4.334-3.474-.383-.44-1.659-2.322-1.848-2.741-1.018-2.302-1.078-4.306-.173-6.754.23-.627 1.5-3.271 2.345-3.188 1.216.107.949 2.106 1.27 3.141.105.357.446.951.716 1.272 1.683 1.972 7.335 4.155 9.65 4.842.333.104 3.954 1.198 4.484.957.141-.065.83-1.281 1.27-2.016.237-.413.503-.72.794-1.032 2.201-2.352 5.454-4.579 8.692-5.24 1.426-.285 4.22-.047 5.634.753.32.181 1.375.595 2.707 2.156Zm-34.211 27.905c.102.006.258.057.393.113 1.662.723 1.662 3.67 1.261 5.056-1.079 3.646-4.562 7.41-7.342 9.284-1.659 1.1-5.055 2.664-7.485 3.125-3.801.726-7.167-.273-9.201-3.327-1.839-2.763-2.651-6.18-2.797-9.392-.42-9.221 2.51-22.692 6.116-30.391.485-1.032 2.869-5.844 5.086-6.62 2.204-.773 3.175 1.793 3.393 3.711.282 2.469-.512 5.74-1.141 8.386-1.108 4.631-2.699 11.869-3.076 13.944-.398 2.195-1.321 6.893-.988 9.29.17 1.273.413 1.909 1.386 1.832.444-.039 6.683-2.887 10.088-4.151 1.276-.47 2.864-.979 4.307-.86Zm-46.144-4.252s.71.012 1.441 0c2.327-.03 6.23-.455 6.23-.455s-.437-3.411-.791-5.588c-.239-1.454-.431-2.352-.746-3.503-.143-.511-.5-1.971-.874-2.542-.066-.116-.162-.238-.162-.238s-1.884 3.61-2.938 6.126c-.839 1.995-1.258 3.482-1.845 4.692-.141.283-.297.669-.315 1.002-.018.232 0 .506 0 .506Zm-12.484.392s1.117-2.492 1.986-4.377c.914-1.98 5.529-11.184 7.431-13.786 2.109-2.909 6.14-8.398 6.173-8.565.087-.603.219-1.677.785-2.536.44-.684 1.528-.973 2.585-1.041 1.171-.068 2.384.791 2.911 1.749 1.016 1.819 2.747 7 3.121 8.237 2.022 6.896 4.205 19.775 4.921 26.392.186 1.736.767 10.783.812 12.82.042 1.43 0 3.803-.827 4.975-.305.446-.892.817-1.458.809-.764-.027-2.304-1.089-2.978-1.713-1.866-1.749-3.109-3.524-3.507-5.698-.341-1.891-.824-7.318-.824-7.318l-8.135.324-4.531.074s-.429 1.05-.779 1.924c-.758 1.874-1.438 3.747-1.731 4.8-.593 2.114-1.735 6.307-2.007 6.961-.572 1.374-1.075 2.174-2.42 2.352-1.492.194-2.516.301-3.595-.279-2.03-1.106-2.956-3.444-3.3-5.855-.605-4.107 1.07-7.42 2.788-12.291.722-2.049-.272-2.73-1.986-5.394-.221-.342-.449-.702-.49-.976-.06-.273.203-.984.577-1.278.117-.095.15-.107.363-.116l4.115-.194ZM51.81 124.037s-.105-2.608-.324-4.062c-.183-1.231-.431-2.156-1.021-3.096-.647-1.031-1.141-1.68-2.163-1.834-1.252-.182-1.944.666-2.725 1.885-1.04 1.656-2.076 4.728-2.687 6.67-.884 2.76-1.258 4.455-1.731 7.595-.782 5.151-1.573 13.911-.731 19.871.156 1.026.413 2.527.413 2.527s1.252-1.394 2.166-2.37c.39-.422 2.246-3.179 2.41-3.467.321-.553 1.181-2.01 1.3-2.308.184-.318 1.522-3.17 1.756-3.839a210.35 210.35 0 0 0 1.605-4.817c1.177-3.616.968-4.955 1.732-8.969.087-.461.161-3.786.078-3.786-.036-.012-.078 0-.078 0Zm-8.884 38.207s.494.859.883 1.505c2.166 3.583 5.625 5.635 9.804 5.84 4.28.214 9.776-2.248 12.912-4.413 8.959-6.185 13.673-17.337 16.243-28.025 3.028-12.531 3.166-25.749-.443-37.876-2.094-7.039-6.167-15.85-11.214-21.12-1.504-1.564-3.807-3.696-4.463-4.57-.683-.901-.848-1.66.195-2.263 1.099-.628 3.507.675 4.708 1.394 5.892 3.554 9.743 7.096 13.233 12.184.88 1.284 4.418 7.062 5.065 8.27 3.96 7.419 5.99 13.884 7.077 22.074 1.372 10.423.495 22.258-3.142 32.708-1.587 4.586-4.037 9.305-6.59 13.284-.604.934-4.324 5.897-4.782 6.384-1.28 1.339-4.44 4.057-5.916 5.237-7.386 5.885-15.365 9.742-24.123 8.678-4.817-.589-8.77-2.174-12.628-5.288-1.48-1.207-3.978-3.72-4.978-5.51-.65-1.148-1.459-2.543-1.564-2.561-.113-.026-.542.262-1.009.586-.407.28-2.142 1.08-3.061 1.419-6.008 2.224-12.73 1.701-18.25-1.856-4.004-2.572-7.392-7.461-8.89-11.895-2.207-6.575-2.384-13.385-1.485-20.379 1.536-11.868 5.84-23.112 12.256-33.065 4.05-6.272 9.3-12.466 15.566-16.909.704-.505 4.526-2.712 5.308-3.069 1.413-.66 3.294-1.27 4.382-.115.566.597.548 1.082.128 1.87-.664 1.222-2.366 2.881-3.306 3.875-.815.874-5.43 6.491-6.383 7.806-1.045 1.403-5.742 8.389-6.359 9.462-5.924 10.185-10.63 26.321-10.175 38.834.096 2.585.48 6.311 1.064 8.737.793 3.271 2.755 7.699 5.7 9.766 3.1 2.183 5.972 2.058 9.683.595.986-.396 2.387-1.023 2.387-1.023s-1.08-2.751-1.788-4.818c-1.944-5.742-2.725-14.901-2.01-21.205.59-5.169 1.753-9.127 4.107-13.231 1.875-3.289 4.4-6.515 7.554-9.185 3.04-2.576 7.898-4.818 12.172-4.931 3.553-.083 7.23 1.451 9.097 4.657 3.24 5.576 3.447 14.375 2.534 20.174-1.372 8.769-5.946 17.004-12.544 22.582-2.37 1.999-6.955 5.386-6.955 5.386Zm282.585-32.387c.177.033.455.113.692.196 2.055.779 2.899 2.671 3.406 4.74 1.174 4.818 1.677 15.467 1.869 19.645.143 3.122.221 6.212.353 9.302.111 2.62.321 6.105-.225 8.564-.2.883-.793 1.9-1.647 2.433-.979.618-3.199.666-4.418.416-3.01-.619-3.989-2.54-4.415-5.493-1.021-7.05-.533-20.887.072-26.728.195-1.918.932-8.097 1.947-10.684.341-.881 1.081-2.641 2.366-2.391Zm-92.707 10.58s-4.457.313-7.518.652c-3.903.413-11.232 1.671-15.456 3.179-1.272.44-3.851 1.513-4.076 2.804-.228 1.35.605 2.394 1.543 3.485.539.628 3.594 3.545 4.447 4.255 3.592 2.971 10.87 7.566 16.24 9.796 1.833.758 4.883 1.841 4.883 1.841s-.228-8.615-.183-17.099c.018-4.485.12-8.913.12-8.913Zm81.652 3.429c.257 2.314-.348 6.691-.446 7.268-.192 1.329-1.204 4.395-1.366 4.773a54.11 54.11 0 0 1-2.474 4.915c-1.462 2.611-4.93 6.748-6.997 8.517-7.662 6.578-19.529 10.325-29.712 11.559-6.904.83-14.842.702-22.165-.639-2.516-.461-6.26-1.312-6.26-1.312s.009 1.487-.114 2.537c-.057.47-.422 1.731-.623 2.138-.536 1.091-1.407 1.654-2.674 1.891-1.534.292-3.16.378-4.58-.217-2.324-.978-3.163-3.143-3.564-5.623-.33-1.998-.674-5.469-.674-5.469s-1.738-.815-3.19-1.534c-4.457-2.183-8.695-4.818-12.394-7.542-1.025-.752-5.434-4.422-6.41-5.337-2.729-2.561-5.182-5.124-7.051-8.407-1.452-2.564-1.869-4.844-.767-7.559 1.528-3.786 6.994-6.644 10.738-8.27 2.753-1.205 11.292-3.973 14.844-4.485 1.675-.238 4.275-.696 4.433-.803a.724.724 0 0 0 .159-.146c.081-.115.219-3.868.192-5.236-.03-1.35 1.006-10.203 1.339-12.074.179-1.02.952-4.918 1.743-5.938.512-.69 1.426-.643 2.168-.182 4.071 2.507 5.305 11.226 5.607 15.663.183 2.7.273 6.765.273 6.765s4.67-.133 7.545-.059c2.788.068 5.864.508 8.764.966 3.711.583 10.941 2.15 15.087 4.241 3.417 1.716 6.61 4.615 7.643 7.681.965 2.81.818 4.749-.647 7.286-1.644 2.866-4.762 4.99-7.922 5.165-.943.063-4.481-.407-5.568-1.243-.431-.339-.407-.94-.096-1.347.117-.149 1.767-1.008 2.747-1.526a6.243 6.243 0 0 0 1.273-.892c.814-.716 1.542-1.495 1.461-2.405-.113-1.19-1.374-1.924-2.584-2.394-5.661-2.231-16.965-4.089-22.434-4.41-2.139-.125-5.176-.232-5.176-.232l.641 29.951s2.516.479 4.496.8c1.141.167 5.957.598 7.236.631 9.749.255 20.631-.607 29.578-4.809 3.926-1.835 7.53-4.116 10.255-7.205 3.6-4.101 5.484-9.698 4.984-15.544-.548-6.4-5.08-13.977-8.692-18.595-9.558-12.207-25.938-22.238-40.345-28.12-14.716-6.004-29.254-9.465-44.874-10.042-4.023-.143-12.805.06-17.235 1.279-.641.175-1.276.39-1.866.514-.467.113-1.192.42-1.396.577-.107.098-.224.214-.224.214s.275.149.536.265c.47.205 2.45.321 3.474.505.911.173 1.872.658 2.244 1.327.359.63.41 1.127-.024 1.653-1.007 1.222-4.792 1.008-6.455.752-1.731-.279-3.885-.8-4.283-2.298-.455-1.764.38-3.491 1.294-5.091 1.833-3.197 4.451-4.862 8.297-5.9 5.451-1.487 12.337-2.53 17.489-2.727 11.66-.431 22.691 1.585 33.983 4.996 6.464 1.936 14.934 5.192 21.125 8.157 4.439 2.123 11.448 6.042 15.384 8.603 1.24.812 8.503 6.108 9.629 7.039 2.355 1.909 5.437 4.654 7.659 6.851 4.313 4.244 9.678 10.744 12.289 15.901.62 1.243 1.112 2.459 1.914 3.889.279.488 1.474 3.426 1.672 4.277.194.838.482 2.072.524 2.117.06.455.605 2.971.563 3.949Zm50.229 2.177c.219.021.273.03.474.059 3.57.482 7.068 1.119 9.743 2.308 2.483 1.094 3.945 2.468 5.272 4.928 2.021 3.726 2.156 8.939.329 12.888-1.369 2.935-4.364 5.4-7.096 6.708-2.848 1.368-5.636 2.017-8.847 2.379-5.601.61-11.67-.538-16.72-2.964-2.986-1.449-6.634-3.941-8.476-7.155-1.354-2.361-1.312-5.421.338-7.658 2.621-3.562 8.237-4.347 12.475-4.198 3.229.118 9.034 1.115 12.104 2.191.854.306 3.984 1.52 4.529 2.067.383.392.638.949.464 1.475-.707 2.126-5.903 3.247-7.404 3.47-4.029.61-6.113-.898-10.687-2.691-1.135-.44-2.648-.928-3.81-1.035-2.072-.196-4.579.372-4.972 2.629-.204 1.163 1.168 2.245 2.214 2.694 2.453 1.056 4.447 1.428 6.868 1.466 7.125.107 15.137-1.055 20.975-5.159.806-.562 1.584-1.395 1.596-2.439 0-.134-.191-1.258-.557-1.374-.054-.023-.11.003-.152-.006-.135-.038-.36-.404-.549-.645-.419-.508-2.111-1.231-2.444-1.371-3.929-1.626-11.19-2.417-14.937-2.724-3.923-.333-10.097-.85-11.582-1.064-1.525-.214-3.184-.515-4.511-1.107-1.321-.594-2.621-1.927-3.01-3.399-.683-2.658.195-5.923 1.68-8.052 3.9-5.567 13.023-7.676 19.849-8.514 6.605-.818 17.28-.809 23.764 2.614 1.004.529 1.519 1.026 1.303 2.09-.419 1.996-1.941 3.28-3.765 3.845-1.917.607-5.891.842-7.634.949-7.821.437-17.271.208-24.714 2.227-.584.167-1.59.425-1.923.794-1.165 1.255 2.166 1.612 2.882 1.767.209.041.254.05.473.071l16.458 1.936Zm24.396 29.039c-3.157-1.151-3.872-6.213-4.019-8.773-.5-8.335 1.719-19.933 4.538-27.745.805-2.224 1.964-5.858 4.471-5.653 1.726.152 2.957 1.472 3.924 2.828 2.474 3.464 5.727 8.16 7.883 11.428 2.412 3.664 4.727 7.354 7.003 10.694.279.404.542.797.848 1.046.413.33.785.348.952.042.078-.119-.071-4.33-.176-5.174-.177-1.344-.258-2.433-.411-3.593-.419-3.369-1.5-8.109-2.348-11.315-.934-3.586-2.076-7.324-2.929-10.794-.273-1.127-.527-2.266-.518-3.34.009-1.552 1.012-2.412 2.641-1.832 3.211 1.124 7.467 8.044 8.707 10.447.423.812 2.094 4.939 2.468 6.096 1.333 3.964 2.139 7.723 2.507 12.044.354 4.199.057 10.316-1.731 14.455-.656 1.523-2.004 3.572-3.124 4.604-1.758 1.617-5.262 2.881-7.676 1.513-2.642-1.487-6.982-8.951-7.722-10.227-2.519-4.365-6.853-12.903-7.524-13.86-.147-.211-.339-.413-.674-.515-.255-.074-.356.452-.422.794-.432 2.486-.728 14.114-.734 14.438-.072 1.957-.168 6.756-.737 9.12-.371 1.544-.749 2.811-2.177 3.459-1.016.455-1.789.265-3.02-.187Zm43.521-.744c-.342-.259-.893-.818-1.294-1.267-.063-.062-1.198-1.751-1.423-2.272-.198-.449-.347-.773-.491-1.148-1.034-2.649-1.007-5.257-.435-8.103.531-2.656 1.034-2.772 2.406-6.417.087-.2.128-.372.158-.592.057-.5-.757-3.86-.805-4.939-.057-1.648 1.231-2.817 3.387-3.043.198-.017.345-.014.488-.056.86-.208 1.411-1.844 1.881-3.155.656-1.844 1.681-4.654 1.681-4.654s-2.726-.625-4.185-1.172c-1.629-.609-2.86-1.397-3.597-2.881-.883-1.737-.302-2.701 1.525-3.263.671-.214 5.96-1.222 7.632-1.457 2.084-.303 4.046-.562 6.029-.806 1.725-.208 9.638-1.118 12.157-1.052 3.84.11 6.332 1.68 8.576 4.906 1.207 1.722 2.03 3.768.209 4.877-2.797 1.686-11.861 1.814-13.523 1.832-2.645.027-6.302-.018-6.302-.018l-1.845 6.123s6.494-.068 10.142-.083c.886 0 1.773.048 2.27.152 1.863.41 2.507 1.831 2.582 3.88.102 2.397-.353 3.5-2.276 3.822-.995.157-12.149.223-13.661.398-.944.101-1.941.25-1.941.25s-.806 2.087-1.507 4.196c-.707 2.197-1.312 4.437-1.312 4.437s.566.023 1.037.023c.784.006 1.581-.107 2.204-.214 3.403-.618 8.461-1.362 12.613-2.01 2.231-.354 3.354-.511 4.529.958 1.015 1.299 1.542 2.388 1.614 3.958.063 1.478-1.072 2.456-2.459 3.509-4.388 3.33-11.888 6.94-17.477 7.559-2.582.288-3.211.003-5.472-.583-.432-.11-1.995-.836-1.98-.913 0 0-.848-.559-1.135-.782Zm70.519-30.772c-2.876 2.391-6.59 7.265-8.363 9.795-2.369 3.355-4.598 7.197-6.73 10.173-.458.67-1.833 3.063-1.785 3.144.096.169 1.479.116 2.902-.122 3.028-.506 7.147-2.617 9.345-4.36 3.352-2.667 5.685-6.331 6.787-10.616.488-1.948.737-6.031-.653-7.848-.272-.348-.967-.621-1.503-.166Zm-22.836 35.007s-.91 2.652-1.578 4.734c-1.153 3.592-3.69 13.266-4.277 16.272-.884 4.461-3.4 16.151-3.529 16.4-.176.339-.293.446-.719.717-1.036.604-1.452.405-2.707-.262-1.63-.85-3.061-1.718-4.283-3.321-2.456-3.167-1.869-9.127-1.39-12.624 1.686-12.231 3.39-17.61 8.078-29.785.078-.208.078-.256-.018-.44-1.462-3.09-2.249-6.822-2.249-9.837.012-9.543 5.535-18.984 11.729-26.568.467-.576 3.507-4.192 4.888-4.121 1.384.065 1.608 1.668 1.402 3.006-.695 4.407-3.819 8.898-5.955 12.615-2.402 4.154-2.923 5.864-4.097 9.674-.189.594-.659 3.378-.638 3.735.048 1.023.272 2.313.272 2.313s3.906-5.43 6.485-8.781c1.408-1.841 2.42-3.057 3.594-4.369 1.189-1.332 5.769-6.057 7.087-7.303 2.77-2.626 3.999-3.717 6.994-5.261 2.375-1.219 4.507-1.522 6.823-.003 3.672 2.394 5.271 7.458 5.685 11.565.482 4.907-.527 10.426-2.708 14.628-2.585 5.014-6.116 8.624-10.918 11.782-4.909 3.229-10.668 5.427-16.317 5.296-.764-.018-1.654-.062-1.654-.062Z"/>
  </g>
  <defs>
    <clipPath id="a">
      <path fill="#fff" d="M0 .302h512v265.027H0z"/>
    </clipPath>
  </defs>
</svg>
