<svg xmlns="http://www.w3.org/2000/svg" width="250" height="120" fill="none" viewBox="0 0 250 120">
  <g clip-path="url(#a)">
    <path fill="#fff" d="M181.09 33.962C181.09 15.222 196.31 0 215.093 0c18.785 0 33.962 15.222 33.962 33.962 0 18.741-15.22 33.962-33.962 33.962-18.783.043-34.003-15.179-34.003-33.962ZM107.102 2.035l-14.67 42.188h-.34L77.422 2.035H59.445L83.95 65.677h16.282l24.549-63.642h-17.68ZM141.361 42.4l6.996-20.691h.339l7.038 20.69h-14.373Zm16.197-40.365h-17.766l-24.465 63.642h17.257l4.198-10.6h23.447l4.24 10.6h17.553L157.558 2.035ZM39.008 35.573c0 8.268-.594 17.3-11.236 17.3-10.642 0-11.236-9.032-11.236-17.3V2.078H0v35.785c0 8.183.34 16.282 6.657 22.43 5.3 5.215 13.652 7.08 21.073 7.08 7.42 0 15.772-1.865 21.114-7.08 6.318-6.148 6.657-14.247 6.657-22.43V2.035H39.008v33.538Zm128.857 76.209c-.735 0-1.403-.139-2.002-.416a3.438 3.438 0 0 1-1.429-1.217c-.353-.534-.529-1.179-.529-1.935 0-.665.131-1.204.393-1.617a2.775 2.775 0 0 1 1.051-.983 5.514 5.514 0 0 1 1.451-.529c.534-.121 1.07-.216 1.61-.287a69.346 69.346 0 0 1 1.715-.204c.444-.05.766-.134.968-.249.206-.116.309-.318.309-.605v-.061c0-.745-.204-1.325-.612-1.738-.403-.413-1.015-.62-1.836-.62-.852 0-1.519.187-2.003.56-.484.373-.824.771-1.02 1.194l-1.693-.605c.302-.705.705-1.254 1.209-1.647a4.526 4.526 0 0 1 1.663-.832 6.899 6.899 0 0 1 1.783-.242c.373 0 .801.046 1.285.136.489.086.96.265 1.413.537.459.272.839.683 1.142 1.232.302.549.453 1.285.453 2.207v7.648h-1.784v-1.572h-.09c-.121.252-.323.522-.605.809-.282.287-.657.532-1.126.733-.469.202-1.04.303-1.716.303Zm.272-1.603c.706 0 1.3-.138 1.784-.415.489-.278.857-.635 1.104-1.074.251-.438.377-.899.377-1.383v-1.632c-.075.09-.241.174-.498.249a8.23 8.23 0 0 1-.877.189c-.328.05-.648.096-.96.136-.307.035-.557.066-.748.091-.464.06-.897.159-1.3.295-.398.131-.721.33-.968.597-.241.262-.362.619-.362 1.073 0 .62.229 1.088.687 1.406.464.312 1.051.468 1.761.468Zm-12.523 1.572c-.967 0-1.821-.244-2.562-.733-.741-.494-1.32-1.189-1.738-2.086-.419-.902-.628-1.967-.628-3.197 0-1.219.209-2.277.628-3.174.418-.897 1-1.59 1.745-2.079.746-.488 1.608-.733 2.585-.733.756 0 1.353.126 1.791.378.444.247.781.529 1.013.847.237.312.421.569.552.771h.151v-5.714h1.784v15.478h-1.723v-1.783H159c-.131.211-.317.478-.559.801-.242.317-.587.602-1.036.854-.448.247-1.045.37-1.791.37Zm.242-1.602c.715 0 1.32-.186 1.814-.559.494-.378.869-.9 1.126-1.565.257-.67.385-1.443.385-2.32 0-.867-.126-1.625-.378-2.275-.251-.655-.624-1.164-1.118-1.527-.494-.367-1.104-.551-1.829-.551-.756 0-1.386.194-1.89.582-.498.383-.874.904-1.126 1.564-.247.655-.37 1.391-.37 2.207 0 .826.126 1.577.378 2.252.257.67.635 1.204 1.134 1.602.503.394 1.128.59 1.874.59Zm-9.676 1.36V99.9h1.784v11.609h-1.784Zm.907-13.543a1.27 1.27 0 0 1-.9-.355 1.144 1.144 0 0 1-.37-.855c0-.332.124-.617.37-.854a1.27 1.27 0 0 1 .9-.355c.348 0 .645.119.892.355.252.237.378.522.378.854 0 .333-.126.618-.378.855a1.242 1.242 0 0 1-.892.355Zm-8.427 13.785c-1.119 0-2.083-.247-2.895-.74-.806-.499-1.428-1.195-1.866-2.086-.434-.897-.65-1.94-.65-3.129s.216-2.237.65-3.144c.438-.912 1.048-1.623 1.829-2.132.786-.514 1.703-.77 2.751-.77.604 0 1.201.1 1.791.302a4.443 4.443 0 0 1 1.61.982c.483.449.869 1.043 1.156 1.784.287.741.431 1.653.431 2.736v.756h-8.949v-1.542h7.135c0-.655-.131-1.24-.393-1.754a2.956 2.956 0 0 0-1.104-1.216c-.473-.298-1.032-.446-1.677-.446-.711 0-1.326.176-1.845.529a3.481 3.481 0 0 0-1.186 1.36 3.998 3.998 0 0 0-.416 1.799v1.028c0 .876.151 1.62.454 2.229.307.605.733 1.066 1.277 1.383.544.313 1.176.469 1.897.469a3.86 3.86 0 0 0 1.27-.196 2.73 2.73 0 0 0 .99-.605c.277-.272.491-.61.642-1.013l1.723.484a3.826 3.826 0 0 1-.914 1.542 4.46 4.46 0 0 1-1.587 1.028c-.63.241-1.338.362-2.124.362Zm-23.365-.242V99.9h1.723v1.814h.151a2.913 2.913 0 0 1 1.172-1.443c.539-.348 1.186-.522 1.942-.522.766 0 1.403.174 1.912.522.514.342.915.824 1.202 1.443h.121a3.386 3.386 0 0 1 1.337-1.428c.595-.358 1.308-.537 2.139-.537 1.038 0 1.887.325 2.547.975.66.645.99 1.65.99 3.016v7.769h-1.783v-7.769c0-.857-.235-1.469-.703-1.837-.469-.367-1.02-.551-1.655-.551-.817 0-1.449.247-1.897.74-.449.489-.673 1.109-.673 1.86v7.557h-1.814v-7.95c0-.661-.214-1.192-.642-1.595-.429-.408-.98-.612-1.656-.612-.463 0-.896.123-1.299.37a2.788 2.788 0 0 0-.968 1.028c-.242.433-.363.935-.363 1.504v7.255h-1.783Zm-3.267-15.479v15.479h-1.784V96.031h1.784Zm-15.29 15.479h-1.965l5.684-15.478h1.935l5.683 15.478h-1.965l-4.625-13.03h-.121l-4.626 13.03Zm.726-6.046h7.92v1.663h-7.92v-1.663Zm-15.108 6.288c-1.119 0-2.084-.247-2.895-.74-.806-.499-1.429-1.195-1.867-2.086-.433-.897-.65-1.94-.65-3.129s.217-2.237.65-3.144c.438-.912 1.048-1.623 1.83-2.132.785-.514 1.702-.77 2.75-.77.605 0 1.202.1 1.791.302.59.201 1.126.529 1.61.982.484.449.87 1.043 1.157 1.784.287.741.43 1.653.43 2.736v.756h-8.948v-1.542h7.135c0-.655-.132-1.24-.394-1.754a2.957 2.957 0 0 0-1.103-1.216c-.474-.298-1.033-.446-1.678-.446-.71 0-1.325.176-1.844.529-.514.347-.91.801-1.187 1.36a3.997 3.997 0 0 0-.415 1.799v1.028c0 .876.15 1.62.453 2.229.308.605.733 1.066 1.278 1.383.544.313 1.176.469 1.897.469a3.86 3.86 0 0 0 1.27-.196c.382-.137.712-.338.99-.605.276-.272.49-.61.642-1.013l1.723.484a3.83 3.83 0 0 1-.914 1.542 4.465 4.465 0 0 1-1.588 1.028c-.63.241-1.337.362-2.123.362Zm-13.703 0c-.967 0-1.821-.244-2.562-.733-.74-.494-1.32-1.189-1.738-2.086-.419-.902-.628-1.967-.628-3.197 0-1.219.21-2.277.628-3.174.418-.897 1-1.59 1.746-2.079.745-.488 1.607-.733 2.584-.733.756 0 1.353.126 1.791.378.444.247.781.529 1.013.847.237.312.421.569.552.771h.151v-5.714h1.784v15.478H72.25v-1.783h-.212c-.131.211-.317.478-.56.801-.241.317-.586.602-1.035.854-.448.247-1.045.37-1.79.37Zm.242-1.602c.715 0 1.32-.186 1.814-.559.494-.378.869-.9 1.126-1.565.257-.67.385-1.443.385-2.32 0-.867-.126-1.625-.377-2.275-.252-.655-.625-1.164-1.12-1.527-.493-.367-1.102-.551-1.828-.551-.756 0-1.386.194-1.89.582-.498.383-.874.904-1.126 1.564-.247.655-.37 1.391-.37 2.207 0 .826.126 1.577.378 2.252.257.67.635 1.204 1.134 1.602.503.394 1.128.59 1.874.59Zm-19.188 1.633c-.735 0-1.403-.139-2.002-.416a3.437 3.437 0 0 1-1.429-1.217c-.353-.534-.529-1.179-.529-1.935 0-.665.131-1.204.393-1.617a2.779 2.779 0 0 1 1.05-.983 5.52 5.52 0 0 1 1.452-.529c.534-.121 1.07-.216 1.61-.287a69.397 69.397 0 0 1 1.715-.204c.444-.05.766-.134.968-.249.206-.116.31-.318.31-.605v-.061c0-.745-.205-1.325-.613-1.738-.403-.413-1.015-.62-1.836-.62-.852 0-1.52.187-2.003.56-.484.373-.824.771-1.02 1.194l-1.693-.605c.302-.705.705-1.254 1.209-1.647a4.528 4.528 0 0 1 1.663-.832 6.905 6.905 0 0 1 1.783-.242c.373 0 .801.046 1.285.136.489.086.96.265 1.413.537.459.272.84.683 1.142 1.232.302.549.453 1.285.453 2.207v7.648h-1.783v-1.572h-.091c-.121.252-.323.522-.605.809-.282.287-.657.532-1.126.733-.468.202-1.04.303-1.716.303Zm.273-1.603c.705 0 1.3-.138 1.783-.415.489-.278.857-.635 1.104-1.074.252-.438.378-.899.378-1.383v-1.632c-.076.09-.242.174-.5.249a8.196 8.196 0 0 1-.876.189c-.328.05-.648.096-.96.136-.307.035-.557.066-.748.091-.464.06-.897.159-1.3.295a2.24 2.24 0 0 0-.967.597c-.242.262-.363.619-.363 1.073 0 .62.229 1.088.688 1.406.463.312 1.05.468 1.76.468Zm-11.972 5.926c-.862 0-1.603-.111-2.222-.333-.62-.217-1.137-.504-1.55-.862a4.697 4.697 0 0 1-.975-1.133l1.421-.998c.161.212.365.454.612.726.247.277.585.516 1.013.718.433.206 1 .31 1.7.31.938 0 1.711-.227 2.32-.681.61-.453.915-1.164.915-2.131v-2.358h-.15a9.487 9.487 0 0 1-.56.786c-.237.307-.58.582-1.028.824-.443.237-1.043.355-1.799.355-.937 0-1.778-.222-2.524-.665-.74-.443-1.328-1.088-1.761-1.935-.428-.846-.642-1.874-.642-3.083 0-1.19.209-2.225.627-3.107.418-.887 1-1.572 1.746-2.056.745-.488 1.607-.733 2.585-.733.755 0 1.355.126 1.798.378.449.247.791.529 1.028.847.242.312.428.569.56.771h.18V99.9h1.724v11.942c0 .998-.227 1.809-.68 2.434-.449.629-1.053 1.09-1.814 1.383-.756.297-1.597.446-2.524.446Zm-.06-6.379c.715 0 1.32-.164 1.813-.491.494-.328.87-.799 1.126-1.414.257-.615.386-1.35.386-2.207 0-.836-.126-1.574-.378-2.214-.252-.64-.625-1.141-1.119-1.504s-1.103-.544-1.829-.544c-.756 0-1.385.191-1.89.574-.498.383-.873.897-1.125 1.542-.247.645-.37 1.36-.37 2.146 0 .806.125 1.519.377 2.139.257.615.635 1.099 1.134 1.451.504.348 1.129.522 1.874.522Zm-18.146 2.025c-1.119 0-2.084-.247-2.895-.74-.806-.499-1.428-1.195-1.867-2.086-.433-.897-.65-1.94-.65-3.129s.217-2.237.65-3.144c.439-.912 1.048-1.623 1.83-2.132.785-.514 1.702-.77 2.75-.77.605 0 1.202.1 1.791.302.59.201 1.127.529 1.61.982.484.449.87 1.043 1.157 1.784.287.741.43 1.653.43 2.736v.756H15.66v-1.542h7.134c0-.655-.13-1.24-.393-1.754a2.957 2.957 0 0 0-1.103-1.216c-.474-.298-1.033-.446-1.678-.446-.71 0-1.325.176-1.844.529-.514.347-.91.801-1.186 1.36a3.997 3.997 0 0 0-.416 1.799v1.028c0 .876.151 1.62.453 2.229.308.605.733 1.066 1.278 1.383.544.313 1.176.469 1.897.469a3.86 3.86 0 0 0 1.27-.196c.382-.137.712-.338.99-.605.276-.272.49-.61.642-1.013l1.723.484a3.829 3.829 0 0 1-.915 1.542 4.465 4.465 0 0 1-1.587 1.028c-.63.241-1.337.362-2.123.362ZM2.51 96.03l4.594 13.031h.182l4.595-13.03h1.965l-5.683 15.478H6.228L.544 96.031H2.51Zm123.603-5.788c-1.119 0-2.084-.247-2.895-.74-.806-.5-1.428-1.195-1.867-2.087-.433-.897-.65-1.94-.65-3.129s.217-2.237.65-3.144c.439-.912 1.048-1.622 1.829-2.131.786-.514 1.703-.771 2.751-.771.605 0 1.202.1 1.792.302a4.46 4.46 0 0 1 1.61.983c.483.448.869 1.043 1.156 1.783.287.741.431 1.653.431 2.736v.756h-8.949v-1.542h7.135c0-.655-.131-1.24-.393-1.753a2.961 2.961 0 0 0-1.104-1.217c-.473-.297-1.033-.446-1.678-.446-.71 0-1.325.177-1.844.53a3.477 3.477 0 0 0-1.186 1.36 3.998 3.998 0 0 0-.416 1.798v1.028c0 .877.151 1.62.454 2.23.307.605.733 1.066 1.277 1.383.544.312 1.176.469 1.897.469.468 0 .892-.066 1.27-.197.383-.136.713-.337.99-.605a2.75 2.75 0 0 0 .642-1.012l1.723.483a3.818 3.818 0 0 1-.914 1.542 4.462 4.462 0 0 1-1.587 1.028c-.63.242-1.338.363-2.124.363Zm-13.703 0c-.967 0-1.821-.245-2.562-.733-.74-.494-1.32-1.19-1.738-2.086-.418-.902-.627-1.968-.627-3.197 0-1.22.209-2.278.627-3.174.418-.897 1-1.59 1.746-2.079.746-.489 1.607-.733 2.585-.733.755 0 1.353.126 1.791.378.443.247.781.529 1.013.846.236.313.42.57.551.771h.152v-5.714h1.783V90h-1.723v-1.784h-.212c-.131.212-.317.479-.559.802-.242.317-.587.602-1.035.853-.449.247-1.046.37-1.792.37Zm.242-1.602c.716 0 1.32-.187 1.814-.56.494-.378.869-.9 1.126-1.564.257-.67.386-1.444.386-2.32 0-.867-.126-1.625-.378-2.275-.252-.655-.625-1.164-1.119-1.527-.494-.368-1.103-.552-1.829-.552-.756 0-1.385.194-1.889.582-.499.383-.874.905-1.126 1.565-.247.655-.371 1.39-.371 2.206 0 .827.126 1.578.378 2.253.257.67.635 1.204 1.134 1.602.504.393 1.129.59 1.874.59ZM99.45 90.272c-.735 0-1.403-.139-2.002-.416a3.438 3.438 0 0 1-1.429-1.216c-.352-.534-.529-1.18-.529-1.935 0-.665.131-1.204.393-1.618a2.775 2.775 0 0 1 1.05-.982 5.522 5.522 0 0 1 1.452-.53c.534-.12 1.07-.216 1.61-.286.705-.091 1.277-.16 1.715-.204.444-.05.766-.134.968-.25.206-.116.31-.317.31-.604v-.061c0-.746-.204-1.325-.613-1.738-.403-.413-1.015-.62-1.836-.62-.852 0-1.52.186-2.003.56-.484.372-.824.77-1.02 1.193l-1.693-.604c.302-.706.705-1.255 1.209-1.648a4.533 4.533 0 0 1 1.663-.831 6.9 6.9 0 0 1 1.783-.242c.373 0 .802.045 1.285.136.489.086.96.264 1.414.537.458.272.839.682 1.141 1.231.302.55.453 1.285.453 2.207V90h-1.783v-1.572h-.091c-.121.252-.323.522-.605.809-.282.287-.657.531-1.126.733-.468.201-1.04.302-1.715.302Zm.273-1.602c.705 0 1.3-.139 1.783-.416.489-.277.857-.635 1.104-1.073.252-.438.378-.9.378-1.383v-1.633c-.076.091-.242.174-.499.25-.252.07-.544.133-.877.189a38.99 38.99 0 0 1-1.708.226c-.463.06-.897.16-1.3.295a2.24 2.24 0 0 0-.967.597c-.242.262-.363.62-.363 1.074 0 .62.23 1.088.688 1.405.463.313 1.05.469 1.76.469ZM87.2 90.242c-.968 0-1.822-.245-2.563-.733-.74-.494-1.32-1.19-1.738-2.086-.418-.902-.627-1.968-.627-3.197 0-1.22.209-2.278.627-3.174.418-.897 1-1.59 1.746-2.079.745-.489 1.607-.733 2.585-.733.755 0 1.352.126 1.79.378.444.247.782.529 1.013.846.237.313.421.57.552.771h.151v-5.714h1.784V90h-1.723v-1.784h-.212c-.13.212-.317.479-.56.802-.241.317-.586.602-1.035.853-.448.247-1.045.37-1.79.37Zm.241-1.602c.716 0 1.32-.187 1.814-.56.494-.378.87-.9 1.126-1.564.257-.67.386-1.444.386-2.32 0-.867-.126-1.625-.378-2.275-.252-.655-.625-1.164-1.119-1.527-.494-.368-1.103-.552-1.829-.552-.756 0-1.386.194-1.89.582-.498.383-.874.905-1.126 1.565-.246.655-.37 1.39-.37 2.206 0 .827.126 1.578.378 2.253.257.67.635 1.204 1.134 1.602.504.393 1.128.59 1.874.59ZM77.765 90V78.391h1.784V90h-1.784Zm.907-13.544a1.27 1.27 0 0 1-.9-.355 1.141 1.141 0 0 1-.37-.854c0-.332.124-.617.37-.854.253-.237.552-.355.9-.355s.645.118.892.355c.252.237.378.522.378.854 0 .332-.126.617-.378.854a1.242 1.242 0 0 1-.892.355Zm-3.804 4.535-1.602.454c-.1-.268-.25-.527-.446-.779a2.163 2.163 0 0 0-.786-.635c-.332-.166-.758-.25-1.277-.25-.71 0-1.303.164-1.776.492-.469.323-.703.733-.703 1.232 0 .443.161.794.484 1.05.322.257.826.472 1.511.643l1.724.423c1.037.252 1.81.638 2.32 1.157.509.513.763 1.176.763 1.987 0 .665-.191 1.26-.574 1.784-.378.524-.907.937-1.587 1.24-.68.302-1.472.453-2.374.453-1.184 0-2.164-.257-2.94-.771-.776-.514-1.267-1.265-1.473-2.252l1.693-.423c.16.624.466 1.093.914 1.405.453.313 1.046.469 1.776.469.832 0 1.492-.177 1.98-.53.494-.357.741-.785.741-1.284 0-.403-.141-.74-.423-1.013-.282-.277-.716-.484-1.3-.62l-1.935-.453c-1.063-.252-1.844-.642-2.343-1.171-.494-.535-.74-1.202-.74-2.003 0-.655.183-1.235.551-1.739.373-.504.88-.9 1.52-1.186.644-.288 1.375-.431 2.191-.431 1.149 0 2.05.252 2.706.756.66.504 1.128 1.169 1.406 1.995ZM58.727 90V78.391h1.723v1.753h.12c.212-.574.596-1.04 1.15-1.398a3.382 3.382 0 0 1 1.874-.536c.131 0 .295.002.491.007.197.005.346.013.446.023v1.814a5.3 5.3 0 0 0-.415-.068 4.088 4.088 0 0 0-.673-.053c-.564 0-1.068.118-1.512.355a2.68 2.68 0 0 0-1.043.968 2.606 2.606 0 0 0-.377 1.398V90h-1.784Zm-7.52.242c-1.119 0-2.084-.247-2.895-.74-.806-.5-1.428-1.195-1.867-2.087-.433-.897-.65-1.94-.65-3.129s.217-2.237.65-3.144c.438-.912 1.048-1.622 1.83-2.131.785-.514 1.702-.771 2.75-.771.605 0 1.202.1 1.791.302.59.202 1.127.53 1.61.983.484.448.87 1.043 1.157 1.783.287.741.43 1.653.43 2.736v.756h-8.948v-1.542H54.2c0-.655-.132-1.24-.394-1.753a2.962 2.962 0 0 0-1.103-1.217c-.474-.297-1.033-.446-1.678-.446-.71 0-1.325.177-1.844.53a3.48 3.48 0 0 0-1.186 1.36 3.996 3.996 0 0 0-.416 1.798v1.028c0 .877.151 1.62.453 2.23.308.605.733 1.066 1.278 1.383.544.312 1.176.469 1.897.469a3.86 3.86 0 0 0 1.27-.197 2.72 2.72 0 0 0 .99-.605c.276-.272.49-.61.642-1.012l1.723.483a3.82 3.82 0 0 1-.915 1.542 4.457 4.457 0 0 1-1.587 1.028c-.63.242-1.337.363-2.123.363ZM44.4 78.391 40.109 90h-1.814L34 78.391h1.935l3.204 9.25h.121l3.205-9.25H44.4ZM29.857 90V78.391h1.784V90h-1.784Zm.907-13.544c-.347 0-.647-.118-.899-.355a1.141 1.141 0 0 1-.37-.854c0-.332.123-.617.37-.854.252-.237.552-.355.9-.355.347 0 .644.118.891.355.252.237.378.522.378.854 0 .332-.126.617-.378.854a1.242 1.242 0 0 1-.892.355Zm-2.907 35.506v-11.609h1.784v11.609h-1.784Zm.907-13.544c-.347 0-.647-.118-.899-.355a1.141 1.141 0 0 1-.37-.854c0-.332.123-.617.37-.854.252-.237.552-.355.9-.355.347 0 .644.118.891.355.252.237.378.522.378.854 0 .333-.126.617-.378.854a1.242 1.242 0 0 1-.892.355Zm-9.573-15.402V90h-1.783V78.391h1.723v1.814h.151a3.315 3.315 0 0 1 1.24-1.42c.554-.364 1.27-.545 2.146-.545.786 0 1.474.161 2.063.484.59.317 1.048.8 1.376 1.45.327.646.491 1.462.491 2.45V90h-1.784v-7.256c0-.912-.236-1.622-.71-2.13-.474-.515-1.124-.772-1.95-.772-.57 0-1.078.124-1.527.37a2.65 2.65 0 0 0-1.05 1.081c-.257.474-.386 1.048-.386 1.723Zm-7.159-8.495h1.874V84.77c0 1.058-.249 2.003-.748 2.834-.494.826-1.191 1.479-2.093 1.958-.902.473-1.96.71-3.175.71-1.214 0-2.272-.237-3.174-.71-.902-.479-1.602-1.132-2.101-1.958-.494-.831-.74-1.776-.74-2.834V74.52h1.874v10.1c0 .756.166 1.428.498 2.018a3.577 3.577 0 0 0 1.421 1.383c.62.332 1.36.499 2.222.499.862 0 1.603-.167 2.222-.5a3.514 3.514 0 0 0 1.421-1.382c.333-.59.5-1.262.5-2.018v-10.1Z"/>
  </g>
  <defs>
    <clipPath id="a">
      <path fill="#fff" d="M0 0h249.057v120H0z"/>
    </clipPath>
  </defs>
</svg>
