<svg xmlns="http://www.w3.org/2000/svg" width="378" height="120" fill="none" viewBox="0 0 378 120">
  <g clip-path="url(#a)">
    <path fill="#fff" d="M0 45.936c0-14.48 10.985-25.63 25.298-25.63 11.484 0 21.47 7.655 22.968 17.974H38.78c-1.332-5.16-7.157-8.987-13.648-8.987-9.32 0-16.31 7.323-16.31 16.81 0 9.32 6.99 16.643 16.31 16.643 6.49 0 12.316-3.828 13.647-9.487h9.32c-1.33 10.819-11.483 18.308-22.967 18.308C10.985 71.401 0 60.417 0 45.937Zm103.19-24.632v49.098h-9.32v-7.157c-2.663 4.66-9.487 8.156-16.478 8.156-13.647 0-23.966-11.151-23.966-25.631s10.319-25.631 23.966-25.631c6.99 0 13.815 3.495 16.478 8.155v-7.157h9.32v.167ZM93.87 54.59V37.28c-2.663-4.826-8.489-8.321-14.647-8.321-9.486 0-16.643 7.157-16.643 16.81 0 9.487 7.323 16.81 16.643 16.81 6.158.166 11.984-3.329 14.647-7.99Zm17.142-8.654c0-14.48 10.985-25.63 25.299-25.63 11.484 0 21.47 7.655 22.968 17.974h-9.487c-1.332-5.16-7.157-8.987-13.648-8.987-9.32 0-16.31 7.323-16.31 16.81 0 9.32 6.99 16.643 16.31 16.643 6.491 0 12.316-3.828 13.648-9.487h9.32c-1.331 10.819-11.484 18.308-22.968 18.308-14.147-.166-25.132-11.15-25.132-25.63Zm101.526-3.661v28.127h-9.32V43.606c0-8.654-5.16-14.147-12.982-14.147-5.659 0-10.985 2.996-13.814 7.823v33.12h-9.321V0h9.321v28.294c3.162-4.827 9.32-7.989 15.978-7.989 12.149 0 20.138 8.655 20.138 21.97Zm57.42-20.971v49.098h-9.32v-7.157c-2.663 4.66-9.487 8.156-16.477 8.156-13.648 0-23.967-11.151-23.967-25.631s10.319-25.631 23.967-25.631c6.99 0 13.814 3.495 16.477 8.155v-7.157h9.32v.167Zm-9.32 33.287V37.28c-2.663-4.826-8.488-8.321-14.646-8.321-9.487 0-16.644 7.157-16.644 16.81 0 9.487 7.323 16.81 16.644 16.81 6.158.166 11.983-3.329 14.646-7.99Zm47.101-33.454v8.821c-1.831-.665-3.994-.832-5.659-.832-3.994 0-9.32 3.162-12.316 8.821V70.57h-9.32V21.304h9.32v7.157c2.663-4.994 8.156-8.156 12.816-8.156 2.163 0 3.994.5 5.159.832ZM360.166 47.6h-39.611c.832 9.32 6.99 15.48 16.477 15.48 6.824 0 12.316-3.33 13.648-8.49H360c-1.831 10.32-11.318 16.977-23.135 16.977-14.313 0-25.131-11.15-25.131-25.797 0-14.147 10.984-25.298 24.965-25.298 13.148 0 23.8 10.152 23.8 24.3-.166.831-.333 1.996-.333 2.829Zm-9.819-6.99c-.5-7.323-6.325-12.482-14.147-12.482-7.823 0-13.482 4.993-15.146 12.482h29.293Zm27.129 29.792h-9.321V0h9.321v70.402ZM161.942 94.868c0 5.992-4.66 10.486-10.819 10.486h-8.654v14.313h-4.827V84.383h13.481c6.159 0 10.819 4.494 10.819 10.485Zm-4.827 0c0-3.328-2.663-5.825-5.992-5.825h-8.654v11.65h8.654c3.496 0 5.992-2.496 5.992-5.825Zm33.287.167V119.5h-4.66v-3.495c-1.332 2.33-4.827 3.994-8.155 3.994-6.824 0-11.984-5.659-11.984-12.816 0-7.156 5.16-12.815 11.984-12.815 3.495 0 6.823 1.83 8.155 3.994v-3.495h4.66v.167Zm-4.66 16.643v-8.654c-1.332-2.497-4.327-4.161-7.323-4.161-4.66 0-8.322 3.495-8.322 8.321 0 4.827 3.662 8.322 8.322 8.322 2.996.167 5.991-1.498 7.323-3.828Zm24.799-16.81v4.328c-.832-.333-1.997-.5-2.83-.5-1.997 0-4.66 1.665-6.158 4.328v16.31h-4.66v-24.3h4.66v3.496c1.332-2.497 3.995-3.995 6.491-3.995.999 0 1.998.167 2.497.333Zm9.986-7.822c0 1.664-1.498 3.162-3.162 3.162-1.665 0-3.162-1.331-3.162-3.162 0-1.665 1.331-3.163 3.162-3.163 1.664.167 3.162 1.498 3.162 3.163Zm-.832 7.989V119.5h-4.66V95.035h4.66Zm4.826 16.976h4.494c.333 2.497 2.497 3.995 5.659 3.995 2.996 0 4.993-1.332 4.993-3.496 0-6.158-14.646-1.498-14.646-10.818 0-4.16 3.495-7.323 8.987-7.323 4.827 0 9.154 2.663 9.654 7.323h-4.661c-.332-1.997-2.33-3.495-5.159-3.495-2.497 0-4.327 1.165-4.327 2.996 0 5.825 14.646.832 14.646 10.985 0 4.327-3.995 7.656-9.32 7.656-5.826.166-9.82-2.83-10.32-7.823Z"/>
  </g>
  <defs>
    <clipPath id="a">
      <path fill="#fff" d="M0 0h377.476v120H0z"/>
    </clipPath>
  </defs>
</svg>
