<svg xmlns="http://www.w3.org/2000/svg" width="685" height="121" fill="none" viewBox="0 0 685 121">
  <g clip-path="url(#a)">
    <path fill="#fff" d="M20.146 116.888h40.279l12.987-77.374h31.793l6.361-36.303H7.166L.806 39.514H33.71l-13.557 77.374h-.007ZM120.184 3.1h39.45l-11.166 64.987c-.2 22.39 26.707 19.858 31.905 0l12.01-64.831h39.035l-10.907 66.208c-11.284 68.148-124.161 66.971-111.485-.74l11.166-65.616-.008-.008ZM307.688.886c-14.134 0-25.596 11.506-25.596 25.715s11.454 25.737 25.596 25.737 25.597-11.528 25.597-25.737c0-14.208-11.462-25.715-25.597-25.715Zm-67.015 2.17-18.977 114.276h39.835l19.48-114.276h-40.338ZM658.677.886c-14.134 0-25.596 11.506-25.596 25.715s11.454 25.737 25.596 25.737 25.597-11.528 25.597-25.737c0-14.208-11.462-25.715-25.597-25.715Zm-67.015 2.17-18.977 114.276h39.835L632 3.056h-40.338Zm-265.145 114.01h38.732l11.646-62.018c0-21.79 36.214-32.586 31.957 0l-10.292 62.018h39.539l11.646-69.333c7.634-58.212-46.446-56.657-70.688-29.787l4.065-14.624H346.56l-20.043 113.744Z"/>
    <path fill="#fff" d="M522.506.19c-11.943.319-24.078 4.487-36.199 11.521-32.364 20.243-46.765 78.996-6.997 101.964 41.627 18.969 81.084-10.188 87.748-31.964H526.12c-7.212 6.641-20.947 10.988-31.676.14-1.791-2.68-3.376-5.516-3.539-9.477h80.432c8.374-31.038-.059-48.06-13.809-60.663C546.192 3.404 534.449-.128 522.506.191Zm-.288 29.566c3.487-.015 6.9.844 9.981 2.932 4.997 3.39 6.345 7.996 6.352 14.356l-41.419-.118c2.192-5.124 5.805-9.766 11.928-13.542 4.11-2.148 8.678-3.614 13.158-3.628Z"/>
  </g>
  <defs>
    <clipPath id="a">
      <path fill="#fff" d="M.806.035h683.468v120H.806z"/>
    </clipPath>
  </defs>
</svg>
