<svg xmlns="http://www.w3.org/2000/svg" width="331" height="95" fill="none" viewBox="0 0 331 95">
  <g clip-path="url(#a)">
    <path fill="#fff" d="M110.14 10.87c.42.28 4.17-1.16 6.36 3.37 2 4.1-5.49 10.58-11.47 13.63a18 18 0 0 1-12.39.89c-1.73.77-1.52 3.49-3.84 2.4-.37-.46-1.4-3.23-.22-4.72-2.76-2.26-2.63-6.69-1.48-9.36A21.43 21.43 0 0 1 101.92 7c4.6-.71 7.48.64 8.22 3.83m.39 9.47c1.76-1.65 3.24-4.46 1-5.89-5.34-3.41-12.38 5.68-16.75 10 3.61 1.81 10.16-.55 11.09-1.08a21.724 21.724 0 0 0 4.66-3m-11-7.06c-1.23-1.95-7.05 2.58-8.83 4.79-1.78 2.21-.91 3.45-.15 4.15a40.828 40.828 0 0 1 9-8.94m228.8 52.32a.763.763 0 0 1 .7.39c.066.126.1.267.1.41.01.076.01.154 0 .23a.754.754 0 0 1-.36.48c-.087.04-.177.07-.27.09.124.06.228.153.3.27l.46.68.19.29-.27.19-.17-.26-.42-.63-.16-.23-.13-.15a.65.65 0 0 0-.46-.07v1.27h-.32v-3l.81.04Zm-.52 1.41h.4a.65.65 0 0 0 .42-.13.641.641 0 0 0 .18-.46.593.593 0 0 0 0-.23.516.516 0 0 0-.33-.3 1.077 1.077 0 0 0-.3 0h-.33l-.04 1.12Z"/>
    <path fill="#fff" d="M328.3 69.58a2.488 2.488 0 0 0 2.5-2.5 2.483 2.483 0 0 0-1.544-2.303 2.488 2.488 0 0 0-.956-.187 2.501 2.501 0 0 0 0 5v-.01Zm-2.3-2.5a2.264 2.264 0 0 1 .67-1.63 2.31 2.31 0 0 1 3.27 0 2.305 2.305 0 0 1 .729 1.65 2.316 2.316 0 0 1-.678 1.67 2.314 2.314 0 0 1-3.321-.06 2.241 2.241 0 0 1-.67-1.63Zm-30.39-11.6c-.49 10.62-5.18 12-6.15 12.27-2.44.69-4.12-.91-5.68-3.47-1.56-2.56-5.23-13.62-6.31-13.6-1.65 0-3.86 13.79-3.9 14.86-.04 1.07-.48 2.8-2.12 2.69a2.92 2.92 0 0 1-2.88-2.84c.15-8.83 4-20.81 4.54-22.5.44-1.43 2.43-2.64 3.89-3 3.3-.84 9.74 17 11.56 17.06.58 0 .43-.07.54-1.23.236-4.03.068-8.073-.5-12.07-.54-3.59-1.45-6.33-1.35-7 .26-1.43 2.15-.9 3.4.51.99 1.13 5.51 6.71 4.96 18.32Zm-30.83 11.2c-2.72 3-3.95 2.78-5.64 2.09-1.37-.56-.26-7.65-.79-11.31-4.07.55-9.75 1.61-11.9 1.59-.47 0-1 2.2-.94 4 0 2.74.41 5.89-.84 6-2.88.26-4.95-3.11-5.09-5.5-.14-2.39.85-5.39.52-5.84-.19-.26-.43-.26-.72-.89-.73-1.64-1.43-5.77-1.12-5.88a2 2 0 0 1 .82-.12c.82.07 2.26 2 2.7 1.05.44-.95 1.21-7.36 6-14.06 1.43-2 7.29-4.31 9-2.34 5.41 3.25 8.51 13 8.95 16.1.44 3.1 1.74 12.11-.95 15.11ZM258 52.13c-.76-3.15-2.3-12.39-5.54-11.25-2.72 1-4.76 7.69-5.14 11.8 3.49.52 7.43-.33 10.68-.55Zm-23.68 15.96c-1.88 1.08-5.28 3.75-12.07 1-3.39-1.39-5.17-5.74-3.23-11.48.85-2.54 4.86-13.26 5.55-16.63.83-4-.57-5.73-.33-6.18 1.09-2 5.24 3.5 5.48 6 .68 7.27-3.46 16.76-3.94 19.32-.66 3.52 2.76 2.26 4.39 2 1.63-.26 5.32-2.1 6.88-1.13 1.56.97.34 5.33-2.73 7.1Zm-27.54-2.16c-3.3 1.8-6.76 1.57-6.89 2-4.67 17.28-3.25 25.85-4 26.33-1.61 1-6.26-2.3-6.37-3.59-.74-9.26 2.26-20 3.75-25.18 0-.13-1.54-.6-3.68-4.4-1-1.77-1.47-5.43-.64-9 1-4.42 9.94-16 11.54-16.19 1.27-.19 1.05 2.5.44 4.11-.95 2.45-3.08 4.52-4.52 6.69-1.44 2.17-3.64 6.2-2.37 9.09.84 1.91 1.44 2.63 2.13 2.11 1.34-1 3-12 17.1-19.46 3.12-1.65 5.41 4.94 5.15 9-.88 13.56-9.56 17.35-11.64 18.49Zm8.22-14.3c1.21-2 1.76-7.25-.81-6.74-3 .59-11.28 14.25-11.33 15.5-.05 1.25 4.23-.54 5-.92 1.22-.59 3.81-2.36 7.14-7.84Zm-39.09-8.03a28.409 28.409 0 0 1-1.82 3.51c-.67 1.38 7.68.55 10.09 1.3.52.39.42 2.64.3 3.62-.14 1.34-11.31.69-12.11 1.44-.4.37-2.89 6-2.11 6.44 1.3.76 11.83-2.63 13.44-1.5 2.48 1.75 2.39 3.13 1.29 4.23-1.1 1.1-15 8.63-18.75 4.82-2.58-2.64-3.21-3.81-3-7.53.29-3.93 2.57-5.84 2.26-6.45a6.232 6.232 0 0 1-.15-4.69c.42-.86 2.08-.11 2.26-.42.73-1.35 1.65-4.58 2.29-5.54.64-.96-3.32-.74-3.9-1.52-.58-.78-2.62-3.41.34-3.43 7.34-.05 16.9-1.85 19.4-1.34 2 .41 5.73 4.07 3.94 5.56-3.49 2.41-9.68.44-13.77 1.5Zm-17.06 18.32c-2.25 3.35-4.55 3-6.33 1.95-4.85-2.76-7.81-16.63-10.11-16.4-1.35.13-.71 16.84-1.8 17.64-1.09.8-1.81 2.24-4.16.12-.95-.87-.33-8.71-.33-8.71.42-6.36 1.13-17.18 4.22-18.74 2.53-1.28 5.67 4.59 7.12 6.61 1.45 2.02 5.73 11.45 7 11.25 1.27-.2.13-8.25 0-10.1-.66-7.31-4.75-13.21-2.93-14.55 1.34-1 6.9 4.93 8.24 10.28.77 3.2 4.23 13.06-.92 20.65Zm-28.72-21.21c-7.73.13-19.51 1-20.87 1.88-1.15.75-1.27 1.17 1.41 2 4.48 1.48 18.65-.31 22.33 7a12.84 12.84 0 0 1-.81 9.51c-1.85 3.39-10 5.34-15.77 4.77-4-.4-12.2-2.79-12.5-9.06.19-2.52.75-4.45 5.17-5.74 5-1.46 15.7 1.62 16.31 3.54.39 1.24-5.82 3.19-8.76 2.3-2.42-.74-7.21-5.19-9.72-1-.59 1.8.84 2.61 2.16 3.06 7.71 1.81 18.61-.49 19.83-3.36 1.22-2.87-3.19-3.81-5.46-4.74-6.55-2.72-15.53-.35-19.59-3.28-2.28-2.86-.84-5.45 0-7.13 3.63-5.75 17.23-5.32 20.69-5.2 3.07.11 9.42.27 9.77 1.72.68 2.89-2.55 3.27-4.19 3.73ZM97.62 65.75c-1.2.58-4.93-.43-4.57-2-1-9.24.09-19.42 1.19-27.22.56-1.62 3.43-3 4.55 2.74.651 7.892.895 15.813.73 23.73a3.16 3.16 0 0 1-1.9 2.75ZM110 10.62c.42.29 4.17-1.16 6.37 3.37 2 4.1-5.5 10.59-11.47 13.64a18.09 18.09 0 0 1-12.4.89c-1.74.77-1.52 3.49-3.85 2.4-.37-.46-1.4-3.24-.21-4.72-2.77-2.27-2.64-6.69-1.49-9.36a21.43 21.43 0 0 1 14.83-10c4.58-.75 7.47.59 8.22 3.78Zm.39 9.47c1.76-1.64 3.25-4.45 1-5.89C106 10.79 99 19.88 94.62 24.23c3.6 1.8 10.17-.56 11.09-1.09a21.457 21.457 0 0 0 4.66-3.05h.02Zm-11-7c-1.24-2-7 2.57-8.83 4.79s-.92 3.45-.15 4.14A40.759 40.759 0 0 1 99.35 13l.04.09Zm210.95 56.84c5.27.46 10.8-2 12.8-3.79 7.69-7 6.08-13.32 4.05-16.78-6.28-10.73-21.57-13-26.13-11.16-4.56 1.84-4.61 3.36-4.43 4.54.27 1.83 1.76 2.17 2.21 1.79.45-.38.55-.41.29-1.28-.26-.87.91-1.71 2.16-1.87 5.15-.68 11.5 3.51 13.24 4.78 7.38 5.37 8.84 12.5 7.75 14.8-1.09 2.3-7.5 3.06-12.68 1.82 0 0-.28-6.17.12-14.51 0-1.16-.85-2.12-2.5-1.66-2.86.79-3.77 12.1-3.79 12.63 0 .77-1.52-1.21-2.14-2a1.583 1.583 0 0 0-2.129-.12 1.576 1.576 0 0 0-.461.62c-.17.45-1.9 4.52 1.2 7.61a17.683 17.683 0 0 0 3.35 2.35c.44 2.49 1.29 5.26 3.68 4.94 1.94-.29 2.72.2 3.41-2.71ZM33.77 59.37c-10.55-4.11-17.9-10.07-17.9-13.58 0-2.48 9.4-3.37 18.28-3.68-.21 5.54-.39 11.96-.38 17.26Zm8.3 8.42a47.14 47.14 0 0 0 14 2.48c16.25 0 33.27-9.56 33.27-24.57C89.29 25.62 53.44 0 20.55 0 11 0 5.74 1.39 4 2.48c-1.4.87-4 3.63-4 4.79 0 2.57 3 2.67 4.3 2.67 1.3 0 3.06-.29 3.06-1.44a1.25 1.25 0 0 0-1.24-1.23c-.58 0-3.06.85-3.06-.58 0-1.15 7.27-1.91 13.48-1.91 36 0 64.53 25.24 64.53 41 0 9.46-8.22 18.07-24.29 18.07A61.83 61.83 0 0 1 42 62c-.11-4-.27-12.48-.33-20h2.8c6.68 0 18.35 1.91 18.35 4.2S60 49.47 58.94 50c-.77.34.05.86.62 1.15a4.59 4.59 0 0 0 2.3.52c2.58 0 6.87-2.77 6.87-6.31 0-5.06-7.36-10.61-22.56-10.61-1.18 0-2.73.07-4.54.22 0-3.13.06-5.57.15-6.62a14.09 14.09 0 0 0-2.39-8.42c-1-1.24-2.29-1.34-3 .57a57.51 57.51 0 0 0-1.72 9.09c0 .44-.15 2.84-.31 6.26-9.8 1.53-21.1 4.75-21.1 10.09 0 5.73 9.36 13.46 20.58 18.67 0 1.08.09 2 .16 2.83.19 2 .39 5.17 4.4 5.17 2.6-.05 3.45-2.2 3.67-4.82ZM220.21 78a7.58 7.58 0 0 1 3.37.51 3.313 3.313 0 0 1 2.345 3.098 3.31 3.31 0 0 1-2.215 3.192 7.16 7.16 0 0 1-3.63.57h-2.29v5h-3.88V78h6.3Zm-2.42 5.12h1.27c2.15 0 2.89-.36 2.89-1.45 0-1.09-.77-1.39-2.8-1.39h-1.36v2.84Zm36.99 7.16h-4.13l-1.27-2.44h-6.89l-1.15 2.44h-4.07L243.48 78h4.45l6.85 12.28Zm-11.27-4.6h4.74l-2.49-4.77-2.25 4.77ZM274.53 78c2.24 0 3.05.13 4.05.62a3.482 3.482 0 0 1 2 2.92 2.944 2.944 0 0 1-1.32 2.37 5.13 5.13 0 0 1-1.33.65 4.803 4.803 0 0 1 2.22 2.32l.61 1 .4.69.48.83.4.69.12.2h-4.23l-.09-.13-.3-.51-.28-.56-.46-.79-.58-1.05a3.657 3.657 0 0 0-2.06-1.92 5.002 5.002 0 0 0-1.11-.06h-.56v5h-3.89V78h5.93Zm-2 5.06h2.37c1 0 1.72-.58 1.72-1.38 0-.8-.73-1.41-2.15-1.41h-1.97l.03 2.79Zm29.37 7.22H298V78h3.88l.02 12.28Zm26.43-9-.27-.11a12.788 12.788 0 0 0-4.7-1.09c-1.4 0-2.31.4-2.31 1s.79 1 2.51 1.46l1.22.36c3 .85 4.25 2 4.25 3.89 0 2.19-2.42 3.65-6 3.65a13.392 13.392 0 0 1-4.07-.67 6.233 6.233 0 0 1-1.38-.53v-2.65c.773.425 1.583.78 2.42 1.06.917.318 1.88.48 2.85.48 1.51 0 2.32-.38 2.32-1.13 0-.75-.51-1-2.07-1.39l-.84-.23a16.473 16.473 0 0 1-2.55-.89 5.357 5.357 0 0 1-1.45-.9 3.158 3.158 0 0 1-1-2.3c0-2.11 2.3-3.5 5.83-3.5a14.9 14.9 0 0 1 5.22 1l.02 2.49Z"/>
  </g>
  <defs>
    <clipPath id="a">
      <path fill="#fff" d="M0 0h330.8v94.49H0z"/>
    </clipPath>
  </defs>
</svg>
