<svg xmlns="http://www.w3.org/2000/svg" width="259" height="120" fill="none" viewBox="0 0 259 120">
  <path fill="#fff" d="M19.989 60.038c0 21.785 17.721 39.51 39.508 39.51h37.29c2.075 0 3.746-2.046 3.746-3.736v-73.15c0-4.848 3.942-8.79 8.791-8.79 3.106 0 6.002 1.648 7.555 4.304.188.319 11.477 19.783 23.426 40.39 11.415 19.682 23.218 40.034 23.416 40.371.525.897 1.554 1.475 2.623 1.475a3.075 3.075 0 0 0 3.072-3.075V22.662c0-4.848 3.946-8.79 8.792-8.79 3.107 0 6.002 1.648 7.558 4.304.185.319 11.464 19.785 23.407 40.39 11.406 19.679 23.198 40.027 23.401 40.371.519.897 1.552 1.475 2.623 1.475a3.076 3.076 0 0 0 3.071-3.075V.522h-14.287v57.63s-26.629-45.837-27.493-47.31C192.602 4.198 185.228 0 177.386 0c-12.29 0-22.256 9.97-22.256 22.26v35.892s-26.629-45.837-27.494-47.31C123.75 4.198 116.377 0 108.533 0 96.244 0 86.278 9.97 86.278 22.26v58.977c.006 2.147-1.608 4.017-3.954 4.022H59.657c-13.928 0-25.222-11.292-25.222-25.223 0-13.93 11.294-25.22 25.222-25.22H78.64v-14.29H59.497c-21.787 0-39.508 17.725-39.508 39.512Z"/>
  <path fill="#fff" d="M243.988.52v96.816c0 4.848-3.946 8.792-8.792 8.792-3.107 0-6.002-1.65-7.558-4.306-.187-.319-11.466-19.781-23.407-40.39-11.406-19.677-23.198-40.025-23.401-40.37-.52-.896-1.552-1.476-2.623-1.476a3.075 3.075 0 0 0-3.071 3.075v74.675c0 4.848-3.945 8.792-8.792 8.792-3.107 0-6.001-1.65-7.558-4.306-.186-.317-11.473-19.781-23.424-40.389a86563.588 86563.588 0 0 0-23.416-40.37c-.525-.897-1.554-1.477-2.623-1.477a3.08 3.08 0 0 0-3.076 3.075v73.152c0 5.034-4.422 9.449-9.462 9.449H59.498c-24.936 0-45.224-20.288-45.224-45.225 0-24.94 20.288-45.228 45.224-45.228H78.64V.521H59.514C26.644.52 0 27.166 0 60.037c0 32.87 26.644 59.516 59.514 59.516H97.16c14.259.009 23.428-8.349 23.41-23.76V61.848s26.821 46.159 27.491 47.308c3.89 6.645 11.263 10.844 19.106 10.844 12.29 0 22.256-9.971 22.256-22.26V61.848s26.627 45.835 27.491 47.308c3.888 6.645 11.262 10.844 19.104 10.844 12.29 0 22.256-9.971 22.256-22.26V.52h-14.286Z"/>
</svg>
