<svg xmlns="http://www.w3.org/2000/svg" width="289" height="120" fill="none" viewBox="0 0 289 120">
  <path fill="#fff" d="M22.596 11.25A11.298 11.298 0 1 0 11.35 22.596 11.285 11.285 0 0 0 22.596 11.25Zm44.713 72.593c-4.144 0-8.104-1.923-10.943-5.47V52.44c2.839-3.546 6.789-5.47 10.943-5.47 6.788 0 10.738 5.57 10.738 18.235 0 12.666-3.95 18.646-10.738 18.646v-.007Zm143.263-37.585c5.977 0 9.015 4.865 9.015 13.17h-18.438c.493-7.99 3.735-13.17 9.423-13.17Zm72.635 31.508c-4.454 4.458-7.696 6.585-12.776 6.585-9.018 0-14.185-8.408-14.185-18.946 0-10.539 3.455-19.451 12.778-19.451 7.8 0 11.245 3.954 12.053 13.981h4.867V45.65c-4.563-3.453-11.742-5.977-18.236-5.977-15.3 0-26.543 10.235-26.543 25.328 0 16.511 9.928 26.242 26.846 26.242 7.698 0 14.183-3.453 19.147-9.827l-3.951-3.65Zm-68.989 6.585c-8.308 0-13.27-6.788-13.17-19.337h32.924c0-15.704-8.204-25.327-22.489-25.327-14.588 0-25.327 10.131-25.327 25.531 0 15.5 10.538 26.135 25.427 26.135 10.335 0 16.412-3.453 22.493-11.142l-3.95-3.647c-5.27 5.87-9.727 7.8-15.908 7.8v-.013Zm-52.996-44.678c-5.977 0-10.942 2.417-16.108 7.496-2.735-4.961-7.597-7.496-13.881-7.496-5.773 0-10.839 2.33-14.993 6.281v-5.47H95.775v5.674h6.688v44.17h14.385V52.345c2.838-3.452 6.281-5.369 10.131-5.369 4.358 0 6.585 2.735 6.585 7.9v35.452h14.185V58.906a35.316 35.316 0 0 0-.508-5.87c3.039-3.75 6.989-6.077 10.639-6.077 4.354 0 6.584 2.735 6.584 7.9v35.469h14.182V56.693c0-10.739-6.485-17.02-17.424-17.02Zm-90.771 0c-5.673 0-10.131 2.027-14.085 5.673V27.211H34.181v5.677h7.7v51.767h-7.7v5.673h21.577v-5.37c4.144 3.95 8.716 6.181 14.693 6.181 14.08 0 22.996-9.322 22.996-25.834 0-16.513-8.908-25.632-22.996-25.632Zm-45.386-6.785v-5.677H2.776v63.117h22.29v-5.673h-7.804V32.888h7.803Z"/>
</svg>
