<svg xmlns="http://www.w3.org/2000/svg" width="601" height="115" fill="none" viewBox="0 0 601 115">
  <g clip-path="url(#a)">
    <path fill="#fff" d="M7.3 54.7c4.2-.2 8.7 6.5 11.9 1.1 1-1.6 1.3-13.2 1-19.8-.4-10.1.3-13 8.2-19.3 7.2-5.6 13.6-10.6 21-14.6 1.7-.6 3.5-.1 4.5.8 1.1.9 1.6 2.8-.1 4.7-5.9 5.9-11.1 9-17.1 13.7-2.2 1.7-5.5 4.1-6.2 7C30 41.8 36 59 21.6 68.4c-6.9 3.2-14.9.6-20-4.5-1-1-1.4-2.6-.7-3.8 1.7-2.1 3.6-4.9 6.4-5.4Zm77 17.9c-2.4 2.4-6.2 2.9-6.6 2.7-.7-.3-.8-.5-1.1-1-.3-.4-1.2-2.4-1.9-3.8-1.5-3.4-2.2-7-3.5-10.7 0 0-.1-.3-.3-.5-.1-.2-.4-.2-.7.1-4.2 3.8-8.2 8.3-13.3 10.3-2.1.4-3.6-1.1-4.5-2.7-.6-1.1-1.5-3.4-2-2.9-4.8 3.1-11 8.2-17 3.9-3-2.4-2-7.1-.9-9.8 3.2-7.8 8.1-13.5 16.6-17.3 1.9-.9 5-.9 6.4 0 5.1 4 2.7 10.8 3.6 16.1.8 1.1 2.2 1.5 3.6.7 2.6-1.8 6.2-4.2 7.4-5.9-.2-17.9 3.4-35.1 17.5-47 1.5-1.2 3.6-1.1 4.5-.3 4.3 3.7 5 11.6 3 19-2.9 9.8-8.4 19-15.3 27-.2 7 2.9 13.2 5.3 20.1.4 1.3-.3 1.5-.8 2ZM41.4 59.1c.2 1.1 1.4 2 2.6 2 3.6-.8 6-4.3 7.2-7.5.4-1.7 1.3-4.4-.2-6.1-.8-.4-1.6-.3-2.7.4-4.2 2.6-7 6.4-6.9 11.2ZM80 31.5c-.1 1.8-.7 4.8-.2 6.3 3.5-2.9 5.2-6.9 7.4-11.1 1.7-3.8 3.6-10.4.8-13.2-.8-.5-2.3 1-2.8 2-2.9 5-4.3 10.5-5.2 16Z"/>
    <path fill="#fff" d="M93.3 68.5c-2.7-7.6-5.3-18.7-5.4-21.2-.1-2.6 2.1-4.5 4.1-5.9 1.2-.6 2.9-1.7 4-.8 1.3.9 2.5 9.1 4 13.8.2.5.7.2 1.4-.6 6.5-6.1 12.3-18.7 23-13.9 4.4 1.8 10.9-3.7 13.9 2.1 2.7 5.3-1.2 12.2 1.8 17.9.9 3.8 9.3.2 5.4 4.9-2.9 3.2-6.7 5.2-10.9 3.8-2.2-.6-3.6-4.2-5.4-3.4-4.1 2.8-9.3 5.7-14.3 3.4-1.4-1-2.5-2.4-2.4-4.3.4-7.6 3.4-12.6 6.7-17 .2-.3.5-.8.2-1.1-.9-.8-2.1 0-3.1.7-7.4 6.3-12.9 14.4-19.2 21.7-.9.9-1.3 1.2-2.4 1.1-.7-.2-1-.6-1.4-1.2Zm28.6-10c.5.9 1.7 1.3 2.8 1 4-1.7 6.5-6 7.1-10.2 0-1.2-.8-2.2-2.1-2.2-4.5 1.5-8.2 6.5-7.8 11.4Zm54-12.4c-.4-.8-1.7-.6-2.6-.8-4.3-.1-4.7-1.6-6 2.5-2.7 6.5-4.6 13.4-8.8 19.3-1 1.3-2.6 1.7-4.1 1.2-2.9-1.3-4-4.3-5.1-6.9-2.3-7.4-5.2-14.5-6.6-22.3-.2-2.1.2-5.4 3-6.5 3.6-1.3 12.4 2.4 16.9 3.2.3.1.7-.2 1.4-2.8 1.7-8.9 3.8-17.8 5-27 .4-1.3 1.4-2.2 2.8-2.4 2.1.1 4.1.8 5.4 2.4.5.6.5 1.8.5 2.5-.7 9.6-3.8 18.9-6.1 28.2-.4 1.7 1.9 1.8 3.6 2.1 7.7 2 13.3-.2 20.2-2.2 1.9-.5 3-1.1 4.1-.2 3.4 3 8.1 1.6 9 5.9 1.2 5.4.5 12.8 4.7 15.7 1.3.7 2.5-.2 3.4-.7 2.3-1.6 0-1.3 1.6-7.9 1-4.6 4.5-9.4 9.2-11.1 2.6-.9 5.6-.9 8.3 0 3.4 1.9 5 5.5 4.5 9.4-1 6.5-6.5 7-9.9 10.1-.2 1 .9 2.2 2 2.5 6.8 1.7 16.4-4.8 23.4 1.5 1.6 1.4-1.6 4.3-2.4 5.1-.5.4-1.1.3-1.5.2-2.9-1.1-7.1-3.1-10.9-1.4-5.3 2.1-12.3 5.5-17.6 1-1.7-.9-2.1-3.7-4.2-2.9-3.9 1.8-9.8 6.4-12.7 3.6-5.4-6.4-4-15.2-7.7-22.3-.8-1.1-2.4-1.8-3.4-1.2-1.1.7 1.2 2.7 1.1 5.9.4 7-3.5 14.3-10.5 17.4-3.3 1.8-8.7 1.6-11.7-.7-3.4-3-3.8-8.1-2.6-12 1-2.6 2.3-5 4-7.4.2-.2.4-.6.3-1Zm-22.6 5.7c.1 1 .5 1.8.8 2.8.2.7.8 2.5 1.5 2.7.4.1.6-.1 1.1-.9 1.9-3.3 2.8-6.3 3.6-10.7.1-.8-.1-1-.5-1.3-2.5-1.5-4.9-2-7.8-2.6-.7-.2-.8.5-.7 1.2.1.5.2 1 .3 1.4.2.5 1.2 3.7 1.7 7.4Zm26 5.1c0 1.6.6 3 2.1 3.8 1.3.5 2.6 0 3.8-.4 1.7-1 3.2-2.6 3.8-4.5.5-2.4 1-5.7-1.2-7.5-1.2-.7-2.8-.7-4 0-3.3 1.8-4.2 5.4-4.5 8.6Zm47.6-5.1c2.6-.6 5.2-2 6.8-4.3.6-.9.5-2.9-.7-3.7-1-.6-2-.7-3-.2-2.9 1.5-4.4 5.2-3.1 8.2Zm369.3-13.3c2 0 4.5 1.6 4.4 4.2-.1 2.7-1.3 4.1-4.1 4l-3.1-.3c-8.5-1.2-17.9-1.2-26.9-1.7-.5 0-1.1 0-1.4.2-.9.8.1.2.5 4.8.6 6.9-2.4 13.9-8.9 17-4 1.9-10 1.7-13.6-.6-2.5-2-3.5-4.2-4.1-6.9-.4-1.9-2.1-.3-2.9.3-4.4 3.6-11.8 8.2-14.1 8.6-1.6.3-2.6-.8-3.1-2.1-.7-3.4 1.2-6 .7-8.9-.2-.5-.4-.2-.7 0-4.8 4.3-10 12-15.7 11-3.9-2.7-1.2-7.6-2-11.6 0-.5-.1-1-.7-.4-3.4 2.5-5.9 5.3-9.5 7.8-2.5 1.7-7.7 6.4-11 3.9-2-1.5-1.1-8.2-1.4-10.7-.1-.3-.1-.8-.6-.4-3.8 3.3-7.2 8.8-12.1 10.7-2.3.3-4.1-1.6-5.1-3.4-.4-.6-.5-1.4-1.1-2 0-.1-.4-.2-.8 0-4.3 2.5-7.8 7-13.4 5.6-1.8-.5-3.4-1.9-4-3.7-.7-1.6-.1-3.8-1.1-5.2-.2-.4-.6-.3-.9 0-2.7 2.4-5.3 5.4-7.8 8.2-3 17.8-7.8 37.2-23.2 46.8-1.7.7-4.2 1.1-6.1.4-3.6-2.2-4.6-6.5-3.8-10.7 3.2-10.5 10.5-19.4 17.3-28.5l7.4-8.9c.7-.9 0-.6-.6-.4-3.9 1.4-8.5 3.8-12.7 1.4-1.6-.7-2.2-3.9-3.7-3-2.9 2.1-5.5 5.2-9.6 3.9-2.3-.7-2.9-3.1-4-4.8-.3-.4-.6-.7-1-.4-2.6 1.6-5.6 5.6-9.6 5.2-2.2-.1-4.4-1.1-5.4-3.1-.2-.8-.6-2.5-1.4-2.2-4.3 2-5.7 10.6-11.1 7.9-6.3-5.6-4.6-15-4.6-22.9.1-.6-.2-1.5-.9-1.7-1.8-.4-.8 1.4-2.6 6.6-2.1 6.3-6.8 14.8-14.5 16.3-1.9.1-3.7-1.1-4.5-2.8-2.6-5.2-.8-11.9-.8-17.7 0-.4-.2-.7-.4-.8-.2-.1-.5.2-.6.5-.9 2.6-2 4.9-3 7.6-2.6 5.7-9.2 11.7-14.5 12.8-7.4 1.3-14.3-2.1-18.4-8.4-.8-1.2-1.8-5.1-1.8-5.7-.2-1.8-1.2-2.1-1.7-2.2-.4-.1.2 0-1-.3-3.7-1.2-7.3-2.1-11.1-2.5-.7 0-1.1.2-1.3.7-3.7 8.2-5.6 16.7-9.3 24.9-1.1 1.9-3.9 1.6-5.5 1.2-1.4-.4-2.2-.8-3.3-1.8-.6-.5-.5-1.6-.2-2.6 1.5-5.8 3.8-10.6 5.7-16.6-1-5.7-4-10.5-5-16.1 0-1.4.9-2.5 2.1-2.9 2.3-.5 4.1.1 6.7.5.3-.1.6-.3.5-.7-3.6-10-6.6-19.3-8.3-30.1-.2-1.7.6-3.5 1.9-4.3.5-.4 1.3-.7 2.6-.6 31.8 1.2 64.3 2.9 95 4.4 2.4.2 3.2.6 2.5 4.1-1.5 5.8-6.6 4.5-17 4.2-25.1-.6-49.9-3.5-74.4-5.7-1.1-.1-2.5-.3-2.6 1.2-.1.9.1 2.1.3 2.9 1.2 4.4 2.2 8.5 5.3 12.6.3.3.7.1.9-.1 2.5-3 4.5-8.2 7.7-10.2 1-.6 3.3.1 3.9 1.8.1.5.3 1.9 0 2.8l-5.2 17.6c-.4 1.2.1 3.5 1.6 4.1.4.2 1.9.8 2.2.9.9.4 6.1 2.1 6.5 2.3 1 .3 1.3 0 1.8-.5 3.9-4.7 8.2-8.3 14.5-8.1 3.6.1 6.6 2.5 8.1 5.5 1.2 2.5 1.1 5.8-.3 8-2.6 4.8-7.8 6.1-12.9 5.9-1.7.2.2 2.5 1 3.4 3 2.7 7.3 4.1 11.2 2.5 5.1-2.5 8.9-8 9.2-13.4 0-.5-.1-.9-.4-1.1-1.4-.9-3.4-2.9-3.4-5.1 0-1.5.8-2.7 1.6-3.9 1.8-1.6 3.7-1.8 5.8-1.3 1.2.3 2.3 1.7 4.3 1.9 2.7.3 3.1-.9 4.6-1 1.3-.1 2.1.8 2.2 1.9-.4 5.9-3.5 12.9-.3 18 .7.8 1.8 1 2.7.7 3.5-1.8 4.6-8.7 3.4-10.8-1.4-2.3-3.5-4.5-2.4-7.5.7-1.7 1.7-2.4 3.2-2.9 3.5-1.1 6.9 3.7 11.2 2.4 2.5-.5 4.2-3.5 7-2 .5.2 1.5 1.3.9 2.9-2 6.6-3.1 12.8-2.3 19.7.2.8 1 2.1 2.1 1.6 6.9-8.4 10.2-20.1 21.8-23.5 5.1-1.3 7.5 6.7 8 10.4.5 3.6 1 7.9 3 10.4.7.8 2.9-1.3 3.8-2.8 3.5-5.7 6-13.2 11.9-17.2 1.6-.9 9.1-.1 11.8 3.9 2.1 2.9 2.9 8.7 2.7 13.3.5 1.2 1.6.3 2.1 0 7.3-6.1 13.8-14.9 23.1-17.5 1.6-.5 4.2.5 5 1.6 3.1 4.6 2.8 10.6 4.7 15.7.7 1.3 2.2 2.2 3.8 1.6 6.2-5.2 10-16.1 14.8-18.1 1-.6 3.1.4 3.4 1.9 1.2 6-1.1 11.4-1.7 17.1 0 1.3 1.7.1 2.5-.4 6.9-5.1 10-10.2 15-16.9 1.4-2.1 3-3.4 4.9-1.8 2.5 2.9 1 9.5.8 10.9l-1.7 8.6c.2.7 1.4.1 2-.3 7.4-5.4 10.2-14.8 17.2-18.3 1.6-.9 3.4-.1 4.2 1.4 1.3 2.6-2.6 11.3-3.3 16.7-.1.4.2.6.1.6.9.3 3.9-2 5.7-3.3 9.1-6 15.2-17.1 27.9-16.1h32.8ZM308 44.9c-1.1 1.4-.9 3.3 1 3.4 2.1.5 4.3.1 6-1.2.6-.5 1.7-2.1 1-3.5-.7-1.2-1.8-2.2-3.7-1.8-1.9.5-3.2 1.7-4.3 3.1Zm75.7 7.7c-.3 1.7-.9 3.4 1 4.7 2.1 1 4.2-.7 5.2-1.7 1.7-2.1 2.6-4.6 2.1-7.5-.2-1.3-1-3.1-2.9-2.3-2.8 1.6-4.4 3.8-5.4 6.8Zm36.4 27.3c-5.3 6.1-9.9 12.2-12.7 19.1-.4 1-1.3 2.3-.4 3.4 1.4.9 2.8-.7 4-1.6 5.9-5.7 9.5-13.4 10.2-21.3-.1-.6-.6-.2-1.1.4Zm-2.7-30c-1.3 3.4-3 8 .2 11.2 1 .6 2.7.6 3.7 0 4.6-2.7 3.6-8 3.2-12.2-.3-1.5-1.2-3.2-3-2.9-1.6.3-3.3 2.2-4.1 3.9Zm32.7 1.9c-.6 1.8-.2 4.8 1.7 6.1 1.4.7 3.1-.2 4.3-1.3 2.2-2.6 3.5-5.9 2.3-9.5-.5-1.3-2.1-2.5-3.3-1.8-2.4 1.5-4 3.9-5 6.5Zm97.5 4.9c.2 1.1 1 2 2 2.5 2.3.6 4.5 0 6.1-1.7 1.7-2.2 1.7-5.7 1.2-8.1-.6-1.2-2.1-2.6-3.6-1.7-2.9 1.9-6.3 5-5.7 9Z"/>
  </g>
  <defs>
    <clipPath id="a">
      <path fill="#fff" d="M0 0h601v115H0z"/>
    </clipPath>
  </defs>
</svg>
