<svg xmlns="http://www.w3.org/2000/svg" width="742" height="136" fill="none" viewBox="0 0 742 136">
  <path fill="#fff" fill-rule="evenodd" d="M577.125 14.768v26.965l17.362.013c13.733 0 20.195-5.128 20.195-13.64 0-8.513-6.287-13.335-20.539-13.335h-17.014l-.004-.003Zm29.022 30.728c8.08.671 10.015 2.81 13.154 7.678l6.669 12.131c3.476 5.008 6.411 7.7 13.233 7.7v1.838h-8.353c-3.782 0-11.034.467-15.07-4.489l-8.716-14.363c-3.046-4.24-3.976-7.672-14.121-7.672h-15.811l.016 19.361c0 3.432 1.505 4.73 4.297 4.73h1.515v2.433h-23.164V72.41h1.515c2.792 0 4.291-1.301 4.291-4.73V16.62c0-3.435-1.499-4.743-4.291-4.743h-1.515V9.448h38.632c22.426 0 28.691 9.181 28.691 18.008-.003 10.015-7.914 15.882-20.968 18.037l-.004.003Zm95.11-28.866c0-3.438 1.5-4.74 4.298-4.74h1.525V9.461h-23.191v2.429h1.516c2.791 0 4.297 1.302 4.297 4.74v51.05c0 3.432-1.506 4.73-4.297 4.73h-1.516v2.433h23.191V72.41h-1.525c-2.798 0-4.298-1.301-4.298-4.73V16.63ZM13.819 67.68c0 3.432-1.506 4.73-4.297 4.73H8.003v2.433h45.804c18.27 0 28.726-5.928 28.726-18.464 0-9.397-5.924-15.053-20.643-16.852 7.108-1.859 13.417-6.796 13.417-14.442 0-11.11-11.094-15.637-25.813-15.637H8v2.43h1.518c2.792 0 4.298 1.307 4.298 4.742v51.06h.003Zm11.549-52.499h19.25c14.404 0 19.248 3.126 19.248 9.993 0 6.866-4.208 12.259-19.92 12.259H25.3l.07-22.248-.003-.004Zm23.945 28.437c14.362 0 20.353 5.87 20.353 12.94 0 6.573-4.367 10.985-20.7 10.985H25.365V43.618h23.948ZM254.36 9.452v2.428h-1.515c-2.792 0-4.294 1.309-4.294 4.743l.009 50.977h33.071a14.925 14.925 0 0 0 12.211-7.044l2.27.853-6.752 13.462-58.114-.032v-2.432h1.519c2.792 0 4.297-1.302 4.297-4.73V16.623c0-3.434-1.505-4.743-4.297-4.743h-1.519V9.452h23.114Zm-60.326.006v2.429h-1.518c-3.397 0-3.785 1.776-5.278 4.542l-29.942 58.417h-9.598l-30.279-58.404c-1.496-2.763-1.891-4.558-5.297-4.558h-1.512v-2.43l23.992-.009v2.429h-1.506c-3.199 0-4.443 2.187-2.973 5.112l24.515 47.202 24.17-47.202c1.471-2.922.245-5.112-2.957-5.112h-1.512V9.445l19.695.013ZM410.688 43.75v2.423h-2.665c-2.791 0-4.291 1.305-4.291 4.743l.01 12.119c-4.087 6.8-17.126 14.07-37.038 14.07-28.219 0-46.198-15.598-46.198-34.838 0-15.89 16.919-34.268 45.75-34.268 16.276 0 28.162 5.682 31.476 7.87 0 .244 3.501 14.572 3.492 14.607 0 .032-2.486.93-2.493.93-.016.01-7.538-17.957-31.084-18.037-20.3-.07-34.144 14.611-34.144 28.94 0 15.807 13.647 28.82 34.144 28.748 12.812-.051 24.941-6.673 24.909-11.48l.025-8.658c0-3.438-1.489-4.743-4.291-4.743h-2.655v-2.422h25.053v-.004Zm83.09 6.22-15.847-30.654-.025.044-15.347 30.61h31.219Zm28.932 22.44v2.431h-24.221V72.41h1.515c3.193 0 4.425-2.17 2.945-5.086l-5.66-10.07h-38.521l-5.243 10.07c-1.474 2.915-.255 5.086 2.945 5.086h1.505l-.009 2.433h-20.071V72.41h1.506c2.387 0 3.502-.865 4.87-3.422l31.352-59.476h8.815l31.222 58.302c.245.42.458.808.678 1.171 1.362 2.556 2.47 3.425 4.848 3.425h1.524ZM86.748 127.703h-3.225v-9.757H70.975v9.757h-3.222v-22.41h3.222v9.76h12.548v-9.76h3.225v22.41Zm27-11.205c0-4.925 3.712-8.538 8.707-8.538 4.994 0 8.735 3.613 8.735 8.538 0 4.924-3.715 8.537-8.735 8.537s-8.707-3.638-8.707-8.537Zm-3.32 0c0 6.077 4.632 11.495 11.957 11.495 7.324 0 12.125-5.45 12.125-11.495 0-6.045-4.667-11.495-12.055-11.495-7.389 0-12.027 5.287-12.027 11.495Zm62.405-8.318h-7.754v19.52h-3.225v-19.52H154.1v-2.89h18.73v2.89h.003Zm35.446 0h-9.496v6.771h9.171v2.89h-9.171v6.968h9.786v2.891h-13.004v-22.41h12.717v2.89h-.003Zm26.609 16.633h10.123v2.89H231.67v-22.41h3.215v19.52h.003Zm43.267-14.593c-1.907-1.808-3.743-2.333-5.255-2.333-2.073 0-3.55 1.089-3.55 2.664 0 4.301 9.693 4.241 9.693 11.371 0 3.514-2.658 6.074-6.274 6.074a9.846 9.846 0 0 1-6.274-2.069v-4.069c1.642 2.098 3.715 3.251 5.911 3.251 2.499 0 3.651-1.582 3.651-2.827 0-4.632-9.689-5.157-9.689-11.301 0-3.645 2.686-5.975 6.799-5.975 1.706 0 3.406.525 4.988 1.573v3.641Zm63.102 12.192c-1.54 1.541-3.151 2.627-4.797 2.627-1.445 0-2.658-1.086-2.753-2.362 0-1.742 1.407-2.891 3.905-4.473l3.645 4.208Zm4.565-5.844c-.496 1.114-1.477 2.687-2.4 3.61l-3.158-3.61c2.894-2.041 4.113-3.811 4.113-5.982 0-2.724-2.235-4.864-5.389-4.864-3.486 0-5.746 2.041-5.746 5.157 0 1.91 1.209 3.82 2.531 5.195-3.123 1.809-5.288 3.91-5.288 6.606 0 2.989 2.591 5.319 5.647 5.319 2.034 0 4.301-.818 7.093-3.349l2.562 3.056h4.138l-4.529-5.259c1.671-1.875 3.027-4.071 3.644-5.876h-3.221l.003-.003Zm-9.432-5.988c0-1.21 1.054-2.139 2.432-2.139 1.477 0 2.563.984 2.563 2.305 0 1.152-.519 2.136-2.923 3.651-.955-.92-2.072-2.435-2.072-3.814v-.003Zm68.928-2.527h2.062c3.123 0 4.371 1.282 4.403 3.38.032 1.872-.958 3.645-4.403 3.645h-2.062v-7.025Zm-3.225-2.76v22.41h3.225v-9.722h1.337c1.636 0 2.992.529 5.949 5.125l2.951 4.6h3.849c-1.541-2.139-2.098-2.89-3.056-4.437-1.7-2.792-2.951-4.861-4.992-6.205 2.394-.948 3.741-2.89 3.741-5.488 0-3.877-2.824-6.28-7.354-6.28h-5.653l.003-.003Zm52.206 2.887h-9.493v6.771h9.158v2.89h-9.158v6.968h9.782v2.891h-13.01v-22.41h12.721v2.89Zm34.07 2.04c-1.903-1.808-3.75-2.333-5.255-2.333-2.073 0-3.546 1.089-3.546 2.664 0 4.301 9.693 4.241 9.693 11.371 0 3.514-2.668 6.074-6.281 6.074a9.83 9.83 0 0 1-6.268-2.069v-4.069c1.636 2.098 3.709 3.251 5.905 3.251 2.499 0 3.655-1.582 3.655-2.827 0-4.632-9.694-5.157-9.694-11.301 0-3.645 2.7-5.975 6.803-5.975 1.7 0 3.409.525 4.991 1.573v3.641h-.003Zm26.441 6.278c0-4.925 3.708-8.538 8.706-8.538 4.998 0 8.741 3.613 8.741 8.538 0 4.924-3.715 8.537-8.741 8.537-5.027 0-8.706-3.638-8.706-8.537Zm-3.317 0c0 6.077 4.628 11.495 11.956 11.495 7.328 0 12.131-5.45 12.131-11.495 0-6.045-4.676-11.495-12.064-11.495-7.389 0-12.023 5.287-12.023 11.495Zm51.018-8.445h2.072c3.123 0 4.374 1.282 4.393 3.38.032 1.872-.948 3.645-4.393 3.645h-2.072v-7.025Zm-3.225-2.76v22.41h3.225v-9.722h1.347c1.642 0 2.992.529 5.94 5.125l2.96 4.6h3.849c-1.547-2.139-2.105-2.89-3.056-4.437-1.7-2.792-2.961-4.861-4.992-6.205 2.394-.948 3.731-2.89 3.731-5.488 0-3.877-2.824-6.28-7.344-6.28h-5.66v-.003Zm53.206 2.887h-7.748v19.52h-3.225v-19.52h-7.748v-2.89h18.724v2.89h-.003Zm33.376 2.04c-1.903-1.808-3.74-2.333-5.255-2.333-2.063 0-3.54 1.089-3.54 2.664 0 4.301 9.687 4.241 9.687 11.371 0 3.514-2.655 6.074-6.275 6.074a9.846 9.846 0 0 1-6.274-2.069v-4.069c1.643 2.098 3.709 3.251 5.921 3.251 2.499 0 3.645-1.582 3.645-2.827 0-4.632-9.693-5.157-9.693-11.301 0-3.645 2.693-5.975 6.796-5.975 1.71 0 3.419.525 4.992 1.573v3.641h-.004Zm76.37-101.295h-.398c-.082.166-.235.191-.337.191-.226 0-.363-.152-.742-.318a2.557 2.557 0 0 0-1.057-.197 2.368 2.368 0 0 0-2.409 2.327v.041c0 1.735 1.7 2.311 2.486 2.6.821.306 1.7.561 1.7 1.382 0 .621-.516 1.487-1.777 1.487a2.736 2.736 0 0 1-2.32-1.547h-.449l.127 2.053h.363l.01-.038c.041-.096.162-.223.379-.223.184 0 .388.06.668.14.347.102.78.236 1.394.236 1.761 0 2.919-1.22 2.919-2.665 0-1.735-1.419-2.238-2.97-2.804-.337-.115-1.346-.446-1.346-1.255 0-.528.372-1.126 1.276-1.126.72 0 1.71.305 2.031 1.617h.449V8.923l.003.003Zm1.551-.197v.42c.42 0 .662.35.662.962v5.615c0 .14 0 .783-.662.783v.426h1.961v-.426c-.274 0-.653-.128-.653-.774V9.662h.041l2.655 7.27h.821l2.573-7.08h.085v6.004c0 .166-.025.586-.588.653v.426h2.919v-.426c-.153-.02-.573-.128-.573-.653V9.818c0-.128.009-.586.573-.669v-.42h-2.668l-2.139 5.85h-.051l-2.13-5.85h-2.826Z" clip-rule="evenodd"/>
</svg>
